<svg width="711" height="399" viewBox="0 0 711 399" fill="none" xmlns="http://www.w3.org/2000/svg">
<rect width="711" height="399" fill="#212121"/>
<path d="M217 36L211.226 46L222.774 46L217 36ZM216 330C216 330.552 216.448 331 217 331C217.552 331 218 330.552 218 330L216 330ZM217 45L216 45L216 330L217 330L218 330L218 45L217 45Z" fill="white"/>
<path d="M565 330L555 324.226V335.774L565 330ZM217 329C216.448 329 216 329.448 216 330C216 330.552 216.448 331 217 331V329ZM556 330V329L217 329V330V331L556 331V330Z" fill="white"/>
<path d="M460.933 358V348.545H462.645V352.548H467.026V348.545H468.744V358H467.026V353.984H462.645V358H460.933ZM472.573 358.143C472.124 358.143 471.719 358.063 471.359 357.903C471.002 357.74 470.719 357.5 470.509 357.183C470.303 356.866 470.2 356.475 470.2 356.01C470.2 355.61 470.274 355.279 470.422 355.018C470.569 354.756 470.771 354.547 471.026 354.39C471.282 354.233 471.57 354.114 471.89 354.034C472.213 353.951 472.547 353.891 472.892 353.854C473.307 353.811 473.644 353.773 473.903 353.739C474.161 353.702 474.349 353.647 474.466 353.573C474.586 353.496 474.646 353.377 474.646 353.217V353.19C474.646 352.842 474.543 352.573 474.336 352.382C474.13 352.191 473.833 352.096 473.445 352.096C473.036 352.096 472.711 352.185 472.471 352.363C472.234 352.542 472.074 352.753 471.991 352.996L470.431 352.774C470.554 352.343 470.757 351.983 471.04 351.694C471.323 351.402 471.67 351.183 472.079 351.038C472.488 350.891 472.941 350.817 473.436 350.817C473.778 350.817 474.118 350.857 474.456 350.937C474.795 351.017 475.104 351.149 475.384 351.334C475.664 351.515 475.889 351.763 476.058 352.077C476.231 352.391 476.317 352.783 476.317 353.254V358H474.71V357.026H474.655C474.553 357.223 474.41 357.408 474.226 357.58C474.044 357.749 473.815 357.886 473.538 357.991C473.264 358.092 472.942 358.143 472.573 358.143ZM473.007 356.915C473.342 356.915 473.633 356.849 473.879 356.717C474.126 356.581 474.315 356.403 474.447 356.181C474.583 355.96 474.65 355.718 474.65 355.456V354.621C474.598 354.664 474.509 354.704 474.383 354.741C474.26 354.778 474.121 354.81 473.967 354.838C473.813 354.865 473.661 354.89 473.51 354.912C473.359 354.933 473.229 354.952 473.118 354.967C472.868 355.001 472.645 355.056 472.448 355.133C472.251 355.21 472.096 355.318 471.982 355.456C471.868 355.592 471.811 355.767 471.811 355.983C471.811 356.29 471.924 356.523 472.148 356.68C472.373 356.837 472.659 356.915 473.007 356.915ZM477.997 358V350.909H479.618V352.091H479.692C479.821 351.682 480.042 351.366 480.356 351.145C480.673 350.92 481.035 350.808 481.441 350.808C481.534 350.808 481.637 350.812 481.751 350.821C481.867 350.828 481.964 350.838 482.041 350.854V352.391C481.971 352.366 481.858 352.345 481.704 352.326C481.554 352.305 481.407 352.294 481.266 352.294C480.961 352.294 480.687 352.36 480.444 352.493C480.204 352.622 480.015 352.802 479.876 353.033C479.738 353.263 479.669 353.53 479.669 353.831V358H477.997ZM485.491 358.125C484.934 358.125 484.435 357.982 483.995 357.695C483.555 357.409 483.207 356.994 482.952 356.449C482.697 355.904 482.569 355.242 482.569 354.464C482.569 353.676 482.698 353.011 482.957 352.469C483.218 351.925 483.571 351.514 484.014 351.237C484.457 350.957 484.951 350.817 485.496 350.817C485.911 350.817 486.253 350.888 486.521 351.029C486.788 351.168 487.001 351.335 487.158 351.532C487.315 351.726 487.436 351.909 487.522 352.082H487.592V348.545H489.267V358H487.624V356.883H487.522C487.436 357.055 487.311 357.238 487.148 357.432C486.985 357.623 486.77 357.786 486.502 357.922C486.234 358.057 485.897 358.125 485.491 358.125ZM485.957 356.754C486.311 356.754 486.613 356.658 486.862 356.467C487.111 356.273 487.301 356.004 487.43 355.659C487.559 355.315 487.624 354.913 487.624 354.455C487.624 353.996 487.559 353.597 487.43 353.259C487.304 352.92 487.116 352.657 486.867 352.469C486.621 352.282 486.317 352.188 485.957 352.188C485.585 352.188 485.274 352.285 485.025 352.479C484.775 352.673 484.588 352.94 484.462 353.282C484.335 353.624 484.272 354.014 484.272 354.455C484.272 354.898 484.335 355.293 484.462 355.641C484.591 355.986 484.78 356.258 485.029 356.458C485.282 356.655 485.591 356.754 485.957 356.754ZM497.814 350.909V352.202H493.737V350.909H497.814ZM494.744 349.21H496.415V355.867C496.415 356.092 496.449 356.264 496.516 356.384C496.587 356.501 496.679 356.581 496.793 356.624C496.907 356.667 497.033 356.689 497.172 356.689C497.277 356.689 497.372 356.681 497.458 356.666C497.547 356.65 497.615 356.637 497.661 356.624L497.943 357.931C497.854 357.962 497.726 357.995 497.56 358.032C497.397 358.069 497.196 358.091 496.96 358.097C496.541 358.109 496.164 358.046 495.828 357.908C495.493 357.766 495.227 357.548 495.03 357.252C494.836 356.957 494.741 356.587 494.744 356.144V349.21ZM502.228 358.138C501.536 358.138 500.935 357.986 500.428 357.681C499.92 357.377 499.526 356.951 499.246 356.403C498.969 355.855 498.83 355.215 498.83 354.482C498.83 353.75 498.969 353.108 499.246 352.557C499.526 352.006 499.92 351.578 500.428 351.274C500.935 350.969 501.536 350.817 502.228 350.817C502.921 350.817 503.521 350.969 504.028 351.274C504.536 351.578 504.929 352.006 505.206 352.557C505.486 353.108 505.626 353.75 505.626 354.482C505.626 355.215 505.486 355.855 505.206 356.403C504.929 356.951 504.536 357.377 504.028 357.681C503.521 357.986 502.921 358.138 502.228 358.138ZM502.237 356.8C502.613 356.8 502.927 356.697 503.179 356.49C503.431 356.281 503.619 356.001 503.742 355.65C503.868 355.299 503.932 354.908 503.932 354.478C503.932 354.044 503.868 353.651 503.742 353.3C503.619 352.946 503.431 352.665 503.179 352.456C502.927 352.246 502.613 352.142 502.237 352.142C501.853 352.142 501.533 352.246 501.277 352.456C501.025 352.665 500.835 352.946 500.709 353.3C500.586 353.651 500.525 354.044 500.525 354.478C500.525 354.908 500.586 355.299 500.709 355.65C500.835 356.001 501.025 356.281 501.277 356.49C501.533 356.697 501.853 356.8 502.237 356.8ZM513.362 358.138C512.654 358.138 512.046 357.983 511.538 357.672C511.034 357.361 510.644 356.932 510.37 356.384C510.1 355.833 509.964 355.199 509.964 354.482C509.964 353.762 510.103 353.127 510.38 352.576C510.657 352.022 511.047 351.591 511.552 351.283C512.06 350.972 512.66 350.817 513.353 350.817C513.928 350.817 514.438 350.923 514.881 351.135C515.327 351.345 515.682 351.642 515.947 352.026C516.212 352.408 516.363 352.854 516.4 353.365H514.802C514.738 353.023 514.584 352.739 514.341 352.511C514.1 352.28 513.779 352.165 513.376 352.165C513.034 352.165 512.734 352.257 512.475 352.442C512.217 352.623 512.015 352.885 511.871 353.227C511.729 353.568 511.658 353.978 511.658 354.455C511.658 354.938 511.729 355.353 511.871 355.701C512.012 356.046 512.211 356.312 512.466 356.5C512.725 356.684 513.028 356.777 513.376 356.777C513.622 356.777 513.842 356.73 514.036 356.638C514.233 356.543 514.397 356.406 514.53 356.227C514.662 356.049 514.753 355.832 514.802 355.576H516.4C516.359 356.078 516.212 356.523 515.956 356.911C515.701 357.295 515.353 357.597 514.913 357.815C514.473 358.031 513.956 358.138 513.362 358.138ZM517.772 358V350.909H519.392V352.091H519.466C519.595 351.682 519.817 351.366 520.131 351.145C520.448 350.92 520.809 350.808 521.216 350.808C521.308 350.808 521.411 350.812 521.525 350.821C521.642 350.828 521.739 350.838 521.816 350.854V352.391C521.745 352.366 521.633 352.345 521.479 352.326C521.328 352.305 521.182 352.294 521.04 352.294C520.736 352.294 520.462 352.36 520.218 352.493C519.978 352.622 519.789 352.802 519.651 353.033C519.512 353.263 519.443 353.53 519.443 353.831V358H517.772ZM524.84 358.143C524.39 358.143 523.986 358.063 523.625 357.903C523.268 357.74 522.985 357.5 522.776 357.183C522.57 356.866 522.467 356.475 522.467 356.01C522.467 355.61 522.541 355.279 522.688 355.018C522.836 354.756 523.038 354.547 523.293 354.39C523.549 354.233 523.836 354.114 524.156 354.034C524.479 353.951 524.813 353.891 525.158 353.854C525.574 353.811 525.911 353.773 526.169 353.739C526.428 353.702 526.615 353.647 526.732 353.573C526.852 353.496 526.912 353.377 526.912 353.217V353.19C526.912 352.842 526.809 352.573 526.603 352.382C526.397 352.191 526.1 352.096 525.712 352.096C525.303 352.096 524.978 352.185 524.738 352.363C524.501 352.542 524.341 352.753 524.258 352.996L522.698 352.774C522.821 352.343 523.024 351.983 523.307 351.694C523.59 351.402 523.936 351.183 524.346 351.038C524.755 350.891 525.207 350.817 525.703 350.817C526.044 350.817 526.385 350.857 526.723 350.937C527.062 351.017 527.371 351.149 527.651 351.334C527.931 351.515 528.156 351.763 528.325 352.077C528.497 352.391 528.584 352.783 528.584 353.254V358H526.977V357.026H526.922C526.82 357.223 526.677 357.408 526.492 357.58C526.311 357.749 526.081 357.886 525.804 357.991C525.531 358.092 525.209 358.143 524.84 358.143ZM525.274 356.915C525.609 356.915 525.9 356.849 526.146 356.717C526.392 356.581 526.582 356.403 526.714 356.181C526.849 355.96 526.917 355.718 526.917 355.456V354.621C526.865 354.664 526.775 354.704 526.649 354.741C526.526 354.778 526.388 354.81 526.234 354.838C526.08 354.865 525.928 354.89 525.777 354.912C525.626 354.933 525.495 354.952 525.384 354.967C525.135 355.001 524.912 355.056 524.715 355.133C524.518 355.21 524.363 355.318 524.249 355.456C524.135 355.592 524.078 355.767 524.078 355.983C524.078 356.29 524.19 356.523 524.415 356.68C524.64 356.837 524.926 356.915 525.274 356.915ZM533.856 350.909V352.202H529.664V350.909H533.856ZM530.712 358V350.24C530.712 349.763 530.81 349.366 531.007 349.049C531.207 348.732 531.475 348.495 531.81 348.338C532.146 348.181 532.518 348.102 532.928 348.102C533.217 348.102 533.474 348.125 533.699 348.172C533.923 348.218 534.089 348.259 534.197 348.296L533.865 349.589C533.794 349.567 533.705 349.546 533.597 349.524C533.489 349.5 533.369 349.487 533.237 349.487C532.926 349.487 532.706 349.563 532.577 349.713C532.451 349.861 532.388 350.074 532.388 350.35V358H530.712ZM538.705 350.909V352.202H534.629V350.909H538.705ZM535.635 349.21H537.306V355.867C537.306 356.092 537.34 356.264 537.408 356.384C537.479 356.501 537.571 356.581 537.685 356.624C537.799 356.667 537.925 356.689 538.063 356.689C538.168 356.689 538.264 356.681 538.35 356.666C538.439 356.65 538.507 356.637 538.553 356.624L538.834 357.931C538.745 357.962 538.617 357.995 538.451 358.032C538.288 358.069 538.088 358.091 537.851 358.097C537.433 358.109 537.056 358.046 536.72 357.908C536.385 357.766 536.118 357.548 535.921 357.252C535.728 356.957 535.632 356.587 535.635 356.144V349.21Z" fill="white" fill-opacity="0.5"/>
<path d="M228.933 358V348.545H235.082V349.981H230.645V352.548H234.763V353.984H230.645V356.564H235.119V358H228.933ZM238.796 358.143C238.346 358.143 237.942 358.063 237.581 357.903C237.224 357.74 236.941 357.5 236.732 357.183C236.526 356.866 236.423 356.475 236.423 356.01C236.423 355.61 236.497 355.279 236.644 355.018C236.792 354.756 236.994 354.547 237.249 354.39C237.505 354.233 237.792 354.114 238.112 354.034C238.436 353.951 238.769 353.891 239.114 353.854C239.53 353.811 239.867 353.773 240.125 353.739C240.384 353.702 240.571 353.647 240.688 353.573C240.808 353.496 240.868 353.377 240.868 353.217V353.19C240.868 352.842 240.765 352.573 240.559 352.382C240.353 352.191 240.056 352.096 239.668 352.096C239.259 352.096 238.934 352.185 238.694 352.363C238.457 352.542 238.297 352.753 238.214 352.996L236.654 352.774C236.777 352.343 236.98 351.983 237.263 351.694C237.546 351.402 237.892 351.183 238.302 351.038C238.711 350.891 239.163 350.817 239.659 350.817C240.001 350.817 240.341 350.857 240.679 350.937C241.018 351.017 241.327 351.149 241.607 351.334C241.887 351.515 242.112 351.763 242.281 352.077C242.453 352.391 242.54 352.783 242.54 353.254V358H240.933V357.026H240.878C240.776 357.223 240.633 357.408 240.448 357.58C240.267 357.749 240.037 357.886 239.76 357.991C239.487 358.092 239.165 358.143 238.796 358.143ZM239.23 356.915C239.565 356.915 239.856 356.849 240.102 356.717C240.348 356.581 240.538 356.403 240.67 356.181C240.805 355.96 240.873 355.718 240.873 355.456V354.621C240.821 354.664 240.731 354.704 240.605 354.741C240.482 354.778 240.344 354.81 240.19 354.838C240.036 354.865 239.884 354.89 239.733 354.912C239.582 354.933 239.451 354.952 239.34 354.967C239.091 355.001 238.868 355.056 238.671 355.133C238.474 355.21 238.319 355.318 238.205 355.456C238.091 355.592 238.034 355.767 238.034 355.983C238.034 356.29 238.146 356.523 238.371 356.68C238.596 356.837 238.882 356.915 239.23 356.915ZM249.824 352.783L248.301 352.95C248.258 352.796 248.182 352.651 248.075 352.516C247.97 352.38 247.829 352.271 247.65 352.188C247.472 352.105 247.253 352.063 246.994 352.063C246.647 352.063 246.354 352.139 246.117 352.289C245.883 352.44 245.768 352.636 245.771 352.876C245.768 353.082 245.843 353.25 245.997 353.379C246.154 353.508 246.413 353.614 246.773 353.697L247.982 353.956C248.653 354.101 249.152 354.33 249.478 354.644C249.807 354.958 249.974 355.369 249.977 355.876C249.974 356.323 249.843 356.717 249.584 357.058C249.329 357.397 248.973 357.661 248.518 357.852C248.062 358.043 247.539 358.138 246.948 358.138C246.08 358.138 245.382 357.957 244.852 357.594C244.323 357.228 244.008 356.718 243.906 356.066L245.536 355.909C245.61 356.229 245.767 356.47 246.007 356.634C246.247 356.797 246.559 356.878 246.944 356.878C247.341 356.878 247.659 356.797 247.899 356.634C248.142 356.47 248.264 356.269 248.264 356.029C248.264 355.826 248.186 355.658 248.029 355.526C247.875 355.393 247.635 355.292 247.308 355.221L246.099 354.967C245.419 354.825 244.916 354.587 244.589 354.251C244.263 353.913 244.102 353.485 244.105 352.968C244.102 352.531 244.22 352.152 244.46 351.832C244.703 351.509 245.04 351.26 245.471 351.085C245.905 350.906 246.405 350.817 246.971 350.817C247.802 350.817 248.456 350.994 248.933 351.348C249.414 351.702 249.711 352.18 249.824 352.783ZM252.393 360.659C252.166 360.659 251.955 360.641 251.761 360.604C251.57 360.57 251.418 360.53 251.304 360.484L251.692 359.182C251.935 359.253 252.152 359.286 252.343 359.283C252.533 359.28 252.701 359.22 252.846 359.103C252.994 358.989 253.118 358.799 253.22 358.531L253.363 358.148L250.792 350.909H252.564L254.199 356.264H254.272L255.911 350.909H257.689L254.849 358.859C254.717 359.234 254.542 359.556 254.323 359.824C254.105 360.094 253.837 360.301 253.52 360.442C253.206 360.587 252.83 360.659 252.393 360.659ZM265.61 350.909V352.202H261.534V350.909H265.61ZM262.54 349.21H264.212V355.867C264.212 356.092 264.246 356.264 264.313 356.384C264.384 356.501 264.476 356.581 264.59 356.624C264.704 356.667 264.83 356.689 264.969 356.689C265.073 356.689 265.169 356.681 265.255 356.666C265.344 356.65 265.412 356.637 265.458 356.624L265.74 357.931C265.65 357.962 265.523 357.995 265.357 358.032C265.193 358.069 264.993 358.091 264.756 358.097C264.338 358.109 263.961 358.046 263.625 357.908C263.29 357.766 263.024 357.548 262.827 357.252C262.633 356.957 262.537 356.587 262.54 356.144V349.21ZM270.025 358.138C269.332 358.138 268.732 357.986 268.225 357.681C267.717 357.377 267.323 356.951 267.043 356.403C266.766 355.855 266.627 355.215 266.627 354.482C266.627 353.75 266.766 353.108 267.043 352.557C267.323 352.006 267.717 351.578 268.225 351.274C268.732 350.969 269.332 350.817 270.025 350.817C270.717 350.817 271.318 350.969 271.825 351.274C272.333 351.578 272.726 352.006 273.003 352.557C273.283 353.108 273.423 353.75 273.423 354.482C273.423 355.215 273.283 355.855 273.003 356.403C272.726 356.951 272.333 357.377 271.825 357.681C271.318 357.986 270.717 358.138 270.025 358.138ZM270.034 356.8C270.41 356.8 270.724 356.697 270.976 356.49C271.228 356.281 271.416 356.001 271.539 355.65C271.665 355.299 271.728 354.908 271.728 354.478C271.728 354.044 271.665 353.651 271.539 353.3C271.416 352.946 271.228 352.665 270.976 352.456C270.724 352.246 270.41 352.142 270.034 352.142C269.649 352.142 269.329 352.246 269.074 352.456C268.822 352.665 268.632 352.946 268.506 353.3C268.383 353.651 268.321 354.044 268.321 354.478C268.321 354.908 268.383 355.299 268.506 355.65C268.632 356.001 268.822 356.281 269.074 356.49C269.329 356.697 269.649 356.8 270.034 356.8ZM281.159 358.138C280.451 358.138 279.843 357.983 279.335 357.672C278.83 357.361 278.441 356.932 278.167 356.384C277.896 355.833 277.761 355.199 277.761 354.482C277.761 353.762 277.9 353.127 278.176 352.576C278.453 352.022 278.844 351.591 279.349 351.283C279.857 350.972 280.457 350.817 281.15 350.817C281.725 350.817 282.234 350.923 282.678 351.135C283.124 351.345 283.479 351.642 283.744 352.026C284.009 352.408 284.159 352.854 284.196 353.365H282.599C282.534 353.023 282.381 352.739 282.137 352.511C281.897 352.28 281.576 352.165 281.173 352.165C280.831 352.165 280.531 352.257 280.272 352.442C280.014 352.623 279.812 352.885 279.668 353.227C279.526 353.568 279.455 353.978 279.455 354.455C279.455 354.938 279.526 355.353 279.668 355.701C279.809 356.046 280.008 356.312 280.263 356.5C280.522 356.684 280.825 356.777 281.173 356.777C281.419 356.777 281.639 356.73 281.833 356.638C282.03 356.543 282.194 356.406 282.327 356.227C282.459 356.049 282.55 355.832 282.599 355.576H284.196C284.156 356.078 284.009 356.523 283.753 356.911C283.498 357.295 283.15 357.597 282.71 357.815C282.27 358.031 281.753 358.138 281.159 358.138ZM285.569 358V350.909H287.189V352.091H287.263C287.392 351.682 287.614 351.366 287.928 351.145C288.245 350.92 288.606 350.808 289.013 350.808C289.105 350.808 289.208 350.812 289.322 350.821C289.439 350.828 289.536 350.838 289.613 350.854V352.391C289.542 352.366 289.43 352.345 289.276 352.326C289.125 352.305 288.979 352.294 288.837 352.294C288.532 352.294 288.258 352.36 288.015 352.493C287.775 352.622 287.586 352.802 287.448 353.033C287.309 353.263 287.24 353.53 287.24 353.831V358H285.569ZM292.636 358.143C292.187 358.143 291.782 358.063 291.422 357.903C291.065 357.74 290.782 357.5 290.573 357.183C290.367 356.866 290.264 356.475 290.264 356.01C290.264 355.61 290.337 355.279 290.485 355.018C290.633 354.756 290.834 354.547 291.09 354.39C291.345 354.233 291.633 354.114 291.953 354.034C292.276 353.951 292.61 353.891 292.955 353.854C293.37 353.811 293.707 353.773 293.966 353.739C294.225 353.702 294.412 353.647 294.529 353.573C294.649 353.496 294.709 353.377 294.709 353.217V353.19C294.709 352.842 294.606 352.573 294.4 352.382C294.194 352.191 293.897 352.096 293.509 352.096C293.1 352.096 292.775 352.185 292.535 352.363C292.298 352.542 292.138 352.753 292.055 352.996L290.494 352.774C290.618 352.343 290.821 351.983 291.104 351.694C291.387 351.402 291.733 351.183 292.142 351.038C292.552 350.891 293.004 350.817 293.5 350.817C293.841 350.817 294.181 350.857 294.52 350.937C294.859 351.017 295.168 351.149 295.448 351.334C295.728 351.515 295.953 351.763 296.122 352.077C296.294 352.391 296.38 352.783 296.38 353.254V358H294.774V357.026H294.718C294.617 357.223 294.474 357.408 294.289 357.58C294.108 357.749 293.878 357.886 293.601 357.991C293.327 358.092 293.006 358.143 292.636 358.143ZM293.07 356.915C293.406 356.915 293.697 356.849 293.943 356.717C294.189 356.581 294.378 356.403 294.511 356.181C294.646 355.96 294.714 355.718 294.714 355.456V354.621C294.662 354.664 294.572 354.704 294.446 354.741C294.323 354.778 294.185 354.81 294.031 354.838C293.877 354.865 293.724 354.89 293.574 354.912C293.423 354.933 293.292 354.952 293.181 354.967C292.932 355.001 292.709 355.056 292.512 355.133C292.315 355.21 292.159 355.318 292.046 355.456C291.932 355.592 291.875 355.767 291.875 355.983C291.875 356.29 291.987 356.523 292.212 356.68C292.436 356.837 292.723 356.915 293.07 356.915ZM301.652 350.909V352.202H297.461V350.909H301.652ZM298.509 358V350.24C298.509 349.763 298.607 349.366 298.804 349.049C299.004 348.732 299.272 348.495 299.607 348.338C299.943 348.181 300.315 348.102 300.725 348.102C301.014 348.102 301.271 348.125 301.495 348.172C301.72 348.218 301.886 348.259 301.994 348.296L301.662 349.589C301.591 349.567 301.502 349.546 301.394 349.524C301.286 349.5 301.166 349.487 301.034 349.487C300.723 349.487 300.503 349.563 300.374 349.713C300.247 349.861 300.184 350.074 300.184 350.35V358H298.509ZM306.502 350.909V352.202H302.426V350.909H306.502ZM303.432 349.21H305.103V355.867C305.103 356.092 305.137 356.264 305.205 356.384C305.276 356.501 305.368 356.581 305.482 356.624C305.596 356.667 305.722 356.689 305.86 356.689C305.965 356.689 306.06 356.681 306.147 356.666C306.236 356.65 306.304 356.637 306.35 356.624L306.631 357.931C306.542 357.962 306.414 357.995 306.248 358.032C306.085 358.069 305.885 358.091 305.648 358.097C305.229 358.109 304.852 358.046 304.517 357.908C304.181 357.766 303.915 357.548 303.718 357.252C303.524 356.957 303.429 356.587 303.432 356.144V349.21Z" fill="white" fill-opacity="0.5"/>
<path d="M115.836 323V313.545H121.985V314.981H117.549V317.548H121.666V318.984H117.549V321.564H122.022V323H115.836ZM125.699 323.143C125.25 323.143 124.845 323.063 124.485 322.903C124.128 322.74 123.845 322.5 123.635 322.183C123.429 321.866 123.326 321.475 123.326 321.01C123.326 320.61 123.4 320.279 123.548 320.018C123.695 319.756 123.897 319.547 124.152 319.39C124.408 319.233 124.696 319.114 125.016 319.034C125.339 318.951 125.673 318.891 126.017 318.854C126.433 318.811 126.77 318.773 127.028 318.739C127.287 318.702 127.475 318.647 127.592 318.573C127.712 318.496 127.772 318.377 127.772 318.217V318.19C127.772 317.842 127.669 317.573 127.462 317.382C127.256 317.191 126.959 317.096 126.571 317.096C126.162 317.096 125.837 317.185 125.597 317.363C125.36 317.542 125.2 317.753 125.117 317.996L123.557 317.774C123.68 317.343 123.883 316.983 124.166 316.694C124.449 316.402 124.796 316.183 125.205 316.038C125.614 315.891 126.067 315.817 126.562 315.817C126.904 315.817 127.244 315.857 127.582 315.937C127.921 316.017 128.23 316.149 128.51 316.334C128.79 316.515 129.015 316.763 129.184 317.077C129.357 317.391 129.443 317.783 129.443 318.254V323H127.836V322.026H127.781C127.679 322.223 127.536 322.408 127.352 322.58C127.17 322.749 126.941 322.886 126.664 322.991C126.39 323.092 126.068 323.143 125.699 323.143ZM126.133 321.915C126.468 321.915 126.759 321.849 127.005 321.717C127.252 321.581 127.441 321.403 127.573 321.181C127.709 320.96 127.776 320.718 127.776 320.456V319.621C127.724 319.664 127.635 319.704 127.509 319.741C127.386 319.778 127.247 319.81 127.093 319.838C126.939 319.865 126.787 319.89 126.636 319.912C126.485 319.933 126.354 319.952 126.244 319.967C125.994 320.001 125.771 320.056 125.574 320.133C125.377 320.21 125.222 320.318 125.108 320.456C124.994 320.592 124.937 320.767 124.937 320.983C124.937 321.29 125.05 321.523 125.274 321.68C125.499 321.837 125.785 321.915 126.133 321.915ZM136.728 317.783L135.204 317.95C135.161 317.796 135.086 317.651 134.978 317.516C134.873 317.38 134.732 317.271 134.553 317.188C134.375 317.105 134.156 317.063 133.898 317.063C133.55 317.063 133.258 317.139 133.021 317.289C132.787 317.44 132.671 317.636 132.674 317.876C132.671 318.082 132.747 318.25 132.901 318.379C133.058 318.508 133.316 318.614 133.676 318.697L134.886 318.956C135.557 319.101 136.055 319.33 136.381 319.644C136.711 319.958 136.877 320.369 136.88 320.876C136.877 321.323 136.746 321.717 136.488 322.058C136.232 322.397 135.877 322.661 135.421 322.852C134.966 323.043 134.443 323.138 133.852 323.138C132.984 323.138 132.285 322.957 131.756 322.594C131.226 322.228 130.911 321.718 130.809 321.066L132.439 320.909C132.513 321.229 132.67 321.47 132.91 321.634C133.15 321.797 133.462 321.878 133.847 321.878C134.244 321.878 134.563 321.797 134.803 321.634C135.046 321.47 135.167 321.269 135.167 321.029C135.167 320.826 135.089 320.658 134.932 320.526C134.778 320.393 134.538 320.292 134.212 320.221L133.002 319.967C132.322 319.825 131.819 319.587 131.493 319.251C131.166 318.913 131.005 318.485 131.008 317.968C131.005 317.531 131.123 317.152 131.363 316.832C131.607 316.509 131.944 316.26 132.374 316.085C132.808 315.906 133.308 315.817 133.875 315.817C134.706 315.817 135.36 315.994 135.837 316.348C136.317 316.702 136.614 317.18 136.728 317.783ZM139.297 325.659C139.069 325.659 138.858 325.641 138.664 325.604C138.474 325.57 138.321 325.53 138.207 325.484L138.595 324.182C138.838 324.253 139.055 324.286 139.246 324.283C139.437 324.28 139.605 324.22 139.749 324.103C139.897 323.989 140.022 323.799 140.123 323.531L140.266 323.148L137.695 315.909H139.468L141.102 321.264H141.176L142.815 315.909H144.592L141.753 323.859C141.62 324.234 141.445 324.556 141.226 324.824C141.008 325.094 140.74 325.301 140.423 325.442C140.109 325.587 139.734 325.659 139.297 325.659ZM152.514 315.909V317.202H148.437V315.909H152.514ZM149.444 314.21H151.115V320.867C151.115 321.092 151.149 321.264 151.217 321.384C151.287 321.501 151.38 321.581 151.494 321.624C151.607 321.667 151.734 321.689 151.872 321.689C151.977 321.689 152.072 321.681 152.158 321.666C152.248 321.65 152.315 321.637 152.361 321.624L152.643 322.931C152.554 322.962 152.426 322.995 152.26 323.032C152.097 323.069 151.897 323.091 151.66 323.097C151.241 323.109 150.864 323.046 150.529 322.908C150.193 322.766 149.927 322.548 149.73 322.252C149.536 321.957 149.441 321.587 149.444 321.144V314.21ZM156.928 323.138C156.236 323.138 155.636 322.986 155.128 322.681C154.62 322.377 154.226 321.951 153.946 321.403C153.669 320.855 153.531 320.215 153.531 319.482C153.531 318.75 153.669 318.108 153.946 317.557C154.226 317.006 154.62 316.578 155.128 316.274C155.636 315.969 156.236 315.817 156.928 315.817C157.621 315.817 158.221 315.969 158.729 316.274C159.237 316.578 159.629 317.006 159.906 317.557C160.186 318.108 160.326 318.75 160.326 319.482C160.326 320.215 160.186 320.855 159.906 321.403C159.629 321.951 159.237 322.377 158.729 322.681C158.221 322.986 157.621 323.138 156.928 323.138ZM156.938 321.8C157.313 321.8 157.627 321.697 157.879 321.49C158.132 321.281 158.319 321.001 158.442 320.65C158.569 320.299 158.632 319.908 158.632 319.478C158.632 319.044 158.569 318.651 158.442 318.3C158.319 317.946 158.132 317.665 157.879 317.456C157.627 317.246 157.313 317.142 156.938 317.142C156.553 317.142 156.233 317.246 155.977 317.456C155.725 317.665 155.536 317.946 155.409 318.3C155.286 318.651 155.225 319.044 155.225 319.478C155.225 319.908 155.286 320.299 155.409 320.65C155.536 321.001 155.725 321.281 155.977 321.49C156.233 321.697 156.553 321.8 156.938 321.8ZM171.303 315.909L168.778 323H166.931L164.406 315.909H166.188L167.817 321.176H167.891L169.525 315.909H171.303ZM175.357 323.138C174.646 323.138 174.032 322.991 173.515 322.695C173.001 322.397 172.606 321.975 172.329 321.43C172.052 320.883 171.913 320.238 171.913 319.496C171.913 318.767 172.052 318.127 172.329 317.576C172.609 317.022 173 316.591 173.501 316.283C174.003 315.972 174.592 315.817 175.27 315.817C175.707 315.817 176.119 315.888 176.507 316.029C176.898 316.168 177.242 316.383 177.541 316.675C177.842 316.968 178.079 317.34 178.252 317.793C178.424 318.242 178.51 318.777 178.51 319.399V319.912H172.698V318.785H176.908C176.905 318.465 176.836 318.18 176.701 317.931C176.565 317.679 176.376 317.48 176.133 317.336C175.893 317.191 175.613 317.119 175.293 317.119C174.951 317.119 174.651 317.202 174.392 317.368C174.134 317.531 173.932 317.746 173.788 318.014C173.646 318.279 173.574 318.57 173.571 318.887V319.87C173.571 320.282 173.646 320.636 173.797 320.932C173.948 321.224 174.158 321.449 174.429 321.606C174.7 321.76 175.017 321.837 175.38 321.837C175.623 321.837 175.844 321.803 176.04 321.735C176.237 321.664 176.408 321.561 176.553 321.426C176.698 321.29 176.807 321.123 176.881 320.923L178.441 321.098C178.343 321.51 178.155 321.871 177.878 322.178C177.604 322.483 177.253 322.72 176.825 322.889C176.397 323.055 175.908 323.138 175.357 323.138ZM179.924 323V315.909H181.544V317.091H181.618C181.748 316.682 181.969 316.366 182.283 316.145C182.6 315.92 182.962 315.808 183.368 315.808C183.46 315.808 183.563 315.812 183.677 315.821C183.794 315.828 183.891 315.838 183.968 315.854V317.391C183.897 317.366 183.785 317.345 183.631 317.326C183.48 317.305 183.334 317.294 183.193 317.294C182.888 317.294 182.614 317.36 182.371 317.493C182.131 317.622 181.941 317.802 181.803 318.033C181.665 318.263 181.595 318.53 181.595 318.831V323H179.924ZM185.078 323V315.909H186.75V323H185.078ZM185.919 314.903C185.654 314.903 185.426 314.815 185.235 314.64C185.045 314.461 184.949 314.247 184.949 313.998C184.949 313.746 185.045 313.532 185.235 313.356C185.426 313.178 185.654 313.088 185.919 313.088C186.186 313.088 186.414 313.178 186.602 313.356C186.793 313.532 186.888 313.746 186.888 313.998C186.888 314.247 186.793 314.461 186.602 314.64C186.414 314.815 186.186 314.903 185.919 314.903ZM192.06 315.909V317.202H187.868V315.909H192.06ZM188.916 323V315.24C188.916 314.763 189.014 314.366 189.211 314.049C189.411 313.732 189.679 313.495 190.015 313.338C190.35 313.181 190.722 313.102 191.132 313.102C191.421 313.102 191.678 313.125 191.903 313.172C192.127 313.218 192.294 313.259 192.401 313.296L192.069 314.589C191.998 314.567 191.909 314.546 191.801 314.524C191.693 314.5 191.573 314.487 191.441 314.487C191.13 314.487 190.91 314.563 190.781 314.713C190.655 314.861 190.592 315.074 190.592 315.35V323H188.916ZM194.407 325.659C194.179 325.659 193.969 325.641 193.775 325.604C193.584 325.57 193.432 325.53 193.318 325.484L193.705 324.182C193.949 324.253 194.166 324.286 194.356 324.283C194.547 324.28 194.715 324.22 194.86 324.103C195.007 323.989 195.132 323.799 195.233 323.531L195.377 323.148L192.805 315.909H194.578L196.212 321.264H196.286L197.925 315.909H199.702L196.863 323.859C196.731 324.234 196.555 324.556 196.337 324.824C196.118 325.094 195.851 325.301 195.534 325.442C195.22 325.587 194.844 325.659 194.407 325.659Z" fill="white" fill-opacity="0.5"/>
<path d="M115.633 63V53.5455H117.345V57.5479H121.726V53.5455H123.444V63H121.726V58.9837H117.345V63H115.633ZM127.273 63.1431C126.824 63.1431 126.419 63.0631 126.059 62.9031C125.702 62.7399 125.419 62.4999 125.21 62.1829C125.003 61.8659 124.9 61.475 124.9 61.0103C124.9 60.6102 124.974 60.2794 125.122 60.0178C125.27 59.7562 125.471 59.5469 125.727 59.3899C125.982 59.233 126.27 59.1145 126.59 59.0344C126.913 58.9513 127.247 58.8913 127.592 58.8544C128.007 58.8113 128.344 58.7728 128.603 58.739C128.861 58.7021 129.049 58.6467 129.166 58.5728C129.286 58.4959 129.346 58.3774 129.346 58.2173V58.1896C129.346 57.8419 129.243 57.5726 129.037 57.3817C128.83 57.1909 128.533 57.0955 128.146 57.0955C127.736 57.0955 127.412 57.1848 127.172 57.3633C126.935 57.5418 126.775 57.7526 126.691 57.9957L125.131 57.7741C125.254 57.3433 125.457 56.9832 125.741 56.6939C126.024 56.4015 126.37 56.183 126.779 56.0384C127.189 55.8906 127.641 55.8168 128.136 55.8168C128.478 55.8168 128.818 55.8568 129.157 55.9368C129.495 56.0168 129.805 56.1491 130.085 56.3338C130.365 56.5154 130.589 56.7631 130.759 57.0771C130.931 57.391 131.017 57.7834 131.017 58.2543V63H129.411V62.0259H129.355C129.254 62.2229 129.111 62.4076 128.926 62.5799C128.744 62.7492 128.515 62.8861 128.238 62.9908C127.964 63.0923 127.642 63.1431 127.273 63.1431ZM127.707 61.9151C128.043 61.9151 128.333 61.849 128.58 61.7166C128.826 61.5812 129.015 61.4027 129.147 61.1811C129.283 60.9595 129.351 60.7179 129.351 60.4563V59.6207C129.298 59.6638 129.209 59.7038 129.083 59.7408C128.96 59.7777 128.821 59.81 128.667 59.8377C128.513 59.8654 128.361 59.89 128.21 59.9116C128.06 59.9331 127.929 59.9516 127.818 59.967C127.569 60.0008 127.345 60.0562 127.149 60.1332C126.952 60.2101 126.796 60.3178 126.682 60.4563C126.568 60.5917 126.511 60.7672 126.511 60.9826C126.511 61.2904 126.624 61.5227 126.848 61.6797C127.073 61.8366 127.359 61.9151 127.707 61.9151ZM132.698 63V55.9091H134.318V57.0909H134.392C134.521 56.6816 134.743 56.3661 135.057 56.1445C135.374 55.9199 135.735 55.8075 136.141 55.8075C136.234 55.8075 136.337 55.8121 136.451 55.8214C136.568 55.8275 136.665 55.8383 136.742 55.8537V57.391C136.671 57.3664 136.558 57.3448 136.405 57.3263C136.254 57.3048 136.108 57.294 135.966 57.294C135.661 57.294 135.387 57.3602 135.144 57.4925C134.904 57.6218 134.715 57.8018 134.576 58.0327C134.438 58.2635 134.369 58.5297 134.369 58.8313V63H132.698ZM140.191 63.1246C139.634 63.1246 139.136 62.9815 138.695 62.6953C138.255 62.4091 137.908 61.9936 137.652 61.4489C137.397 60.9041 137.269 60.2424 137.269 59.4638C137.269 58.6759 137.398 58.0111 137.657 57.4695C137.918 56.9247 138.271 56.5138 138.714 56.2369C139.157 55.9568 139.651 55.8168 140.196 55.8168C140.611 55.8168 140.953 55.8875 141.221 56.0291C141.488 56.1676 141.701 56.3353 141.858 56.5323C142.015 56.7262 142.136 56.9093 142.222 57.0817H142.292V53.5455H143.968V63H142.324V61.8828H142.222C142.136 62.0552 142.012 62.2383 141.849 62.4322C141.685 62.623 141.47 62.7861 141.202 62.9215C140.934 63.0569 140.597 63.1246 140.191 63.1246ZM140.657 61.7536C141.011 61.7536 141.313 61.6581 141.562 61.4673C141.812 61.2734 142.001 61.0041 142.13 60.6594C142.259 60.3147 142.324 59.9131 142.324 59.4545C142.324 58.996 142.259 58.5974 142.13 58.2589C142.004 57.9203 141.816 57.6572 141.567 57.4695C141.321 57.2817 141.018 57.1879 140.657 57.1879C140.285 57.1879 139.974 57.2848 139.725 57.4787C139.476 57.6726 139.288 57.9403 139.162 58.282C139.036 58.6236 138.972 59.0144 138.972 59.4545C138.972 59.8977 139.036 60.2932 139.162 60.641C139.291 60.9857 139.48 61.258 139.73 61.4581C139.982 61.6551 140.291 61.7536 140.657 61.7536ZM152.514 55.9091V57.2017H148.437V55.9091H152.514ZM149.444 54.2102H151.115V60.8672C151.115 61.0919 151.149 61.2642 151.217 61.3842C151.287 61.5012 151.38 61.5812 151.494 61.6243C151.607 61.6674 151.734 61.6889 151.872 61.6889C151.977 61.6889 152.072 61.6812 152.158 61.6658C152.248 61.6504 152.315 61.6366 152.361 61.6243L152.643 62.9308C152.554 62.9615 152.426 62.9954 152.26 63.0323C152.097 63.0692 151.897 63.0908 151.66 63.0969C151.241 63.1093 150.864 63.0462 150.529 62.9077C150.193 62.7661 149.927 62.5476 149.73 62.2521C149.536 61.9567 149.441 61.5874 149.444 61.1442V54.2102ZM156.928 63.1385C156.236 63.1385 155.636 62.9862 155.128 62.6815C154.62 62.3768 154.226 61.9505 153.946 61.4027C153.669 60.8549 153.531 60.2147 153.531 59.4822C153.531 58.7498 153.669 58.1081 153.946 57.5572C154.226 57.0063 154.62 56.5785 155.128 56.2738C155.636 55.9691 156.236 55.8168 156.928 55.8168C157.621 55.8168 158.221 55.9691 158.729 56.2738C159.237 56.5785 159.629 57.0063 159.906 57.5572C160.186 58.1081 160.326 58.7498 160.326 59.4822C160.326 60.2147 160.186 60.8549 159.906 61.4027C159.629 61.9505 159.237 62.3768 158.729 62.6815C158.221 62.9862 157.621 63.1385 156.928 63.1385ZM156.938 61.7997C157.313 61.7997 157.627 61.6966 157.879 61.4904C158.132 61.2811 158.319 61.0011 158.442 60.6502C158.569 60.2994 158.632 59.9085 158.632 59.4776C158.632 59.0437 158.569 58.6513 158.442 58.3004C158.319 57.9465 158.132 57.6649 157.879 57.4556C157.627 57.2463 157.313 57.1417 156.938 57.1417C156.553 57.1417 156.233 57.2463 155.977 57.4556C155.725 57.6649 155.536 57.9465 155.409 58.3004C155.286 58.6513 155.225 59.0437 155.225 59.4776C155.225 59.9085 155.286 60.2994 155.409 60.6502C155.536 61.0011 155.725 61.2811 155.977 61.4904C156.233 61.6966 156.553 61.7997 156.938 61.7997ZM171.303 55.9091L168.778 63H166.931L164.406 55.9091H166.188L167.817 61.1765H167.891L169.525 55.9091H171.303ZM175.357 63.1385C174.646 63.1385 174.032 62.9908 173.515 62.6953C173.001 62.3968 172.606 61.9751 172.329 61.4304C172.052 60.8826 171.913 60.2378 171.913 59.4961C171.913 58.7667 172.052 58.1265 172.329 57.5756C172.609 57.0217 173 56.5908 173.501 56.283C174.003 55.9722 174.592 55.8168 175.27 55.8168C175.707 55.8168 176.119 55.8875 176.507 56.0291C176.898 56.1676 177.242 56.383 177.541 56.6754C177.842 56.9678 178.079 57.3402 178.252 57.7926C178.424 58.242 178.51 58.7775 178.51 59.3991V59.9116H172.698V58.7852H176.908C176.905 58.4651 176.836 58.1804 176.701 57.9311C176.565 57.6787 176.376 57.4802 176.133 57.3356C175.893 57.1909 175.613 57.1186 175.293 57.1186C174.951 57.1186 174.651 57.2017 174.392 57.3679C174.134 57.531 173.932 57.7464 173.788 58.0142C173.646 58.2789 173.574 58.5697 173.571 58.8867V59.87C173.571 60.2824 173.646 60.6364 173.797 60.9318C173.948 61.2242 174.158 61.4489 174.429 61.6058C174.7 61.7597 175.017 61.8366 175.38 61.8366C175.623 61.8366 175.844 61.8028 176.04 61.7351C176.237 61.6643 176.408 61.5612 176.553 61.4258C176.698 61.2904 176.807 61.1226 176.881 60.9226L178.441 61.098C178.343 61.5104 178.155 61.8705 177.878 62.1783C177.604 62.483 177.253 62.7199 176.825 62.8892C176.397 63.0554 175.908 63.1385 175.357 63.1385ZM179.924 63V55.9091H181.544V57.0909H181.618C181.748 56.6816 181.969 56.3661 182.283 56.1445C182.6 55.9199 182.962 55.8075 183.368 55.8075C183.46 55.8075 183.563 55.8121 183.677 55.8214C183.794 55.8275 183.891 55.8383 183.968 55.8537V57.391C183.897 57.3664 183.785 57.3448 183.631 57.3263C183.48 57.3048 183.334 57.294 183.193 57.294C182.888 57.294 182.614 57.3602 182.371 57.4925C182.131 57.6218 181.941 57.8018 181.803 58.0327C181.665 58.2635 181.595 58.5297 181.595 58.8313V63H179.924ZM185.078 63V55.9091H186.75V63H185.078ZM185.919 54.9027C185.654 54.9027 185.426 54.815 185.235 54.6396C185.045 54.4611 184.949 54.2472 184.949 53.9979C184.949 53.7455 185.045 53.5316 185.235 53.3562C185.426 53.1777 185.654 53.0884 185.919 53.0884C186.186 53.0884 186.414 53.1777 186.602 53.3562C186.793 53.5316 186.888 53.7455 186.888 53.9979C186.888 54.2472 186.793 54.4611 186.602 54.6396C186.414 54.815 186.186 54.9027 185.919 54.9027ZM192.06 55.9091V57.2017H187.868V55.9091H192.06ZM188.916 63V55.2397C188.916 54.7627 189.014 54.3656 189.211 54.0487C189.411 53.7317 189.679 53.4947 190.015 53.3377C190.35 53.1808 190.722 53.1023 191.132 53.1023C191.421 53.1023 191.678 53.1254 191.903 53.1715C192.127 53.2177 192.294 53.2592 192.401 53.2962L192.069 54.5888C191.998 54.5672 191.909 54.5457 191.801 54.5241C191.693 54.4995 191.573 54.4872 191.441 54.4872C191.13 54.4872 190.91 54.5626 190.781 54.7134C190.655 54.8612 190.592 55.0735 190.592 55.3505V63H188.916ZM194.407 65.6591C194.179 65.6591 193.969 65.6406 193.775 65.6037C193.584 65.5698 193.432 65.5298 193.318 65.4837L193.705 64.1818C193.949 64.2526 194.166 64.2865 194.356 64.2834C194.547 64.2803 194.715 64.2203 194.86 64.1033C195.007 63.9895 195.132 63.7987 195.233 63.5309L195.377 63.1477L192.805 55.9091H194.578L196.212 61.2642H196.286L197.925 55.9091H199.702L196.863 63.8587C196.731 64.2341 196.555 64.5558 196.337 64.8235C196.118 65.0943 195.851 65.3005 195.534 65.4421C195.22 65.5868 194.844 65.6591 194.407 65.6591Z" fill="white" fill-opacity="0.5"/>
<path d="M151.416 181.909L154.823 192.213H154.957L158.357 181.909H160.965L156.35 195H153.423L148.814 181.909H151.416ZM165.879 195.192C164.895 195.192 164.045 194.987 163.329 194.578C162.617 194.165 162.07 193.581 161.686 192.827C161.303 192.068 161.111 191.175 161.111 190.148C161.111 189.138 161.303 188.252 161.686 187.489C162.074 186.722 162.615 186.126 163.31 185.7C164.004 185.269 164.82 185.054 165.758 185.054C166.363 185.054 166.934 185.152 167.471 185.348C168.012 185.54 168.489 185.838 168.903 186.243C169.32 186.648 169.648 187.163 169.887 187.79C170.126 188.412 170.245 189.153 170.245 190.014V190.724H162.197V189.164H168.027C168.023 188.721 167.927 188.327 167.739 187.982C167.552 187.632 167.29 187.357 166.953 187.157C166.621 186.957 166.233 186.857 165.79 186.857C165.317 186.857 164.901 186.972 164.543 187.202C164.185 187.428 163.906 187.726 163.706 188.097C163.51 188.463 163.41 188.866 163.406 189.305V190.666C163.406 191.237 163.51 191.727 163.719 192.136C163.928 192.541 164.219 192.852 164.594 193.07C164.969 193.283 165.408 193.389 165.911 193.389C166.248 193.389 166.553 193.342 166.825 193.249C167.098 193.151 167.335 193.008 167.535 192.82C167.735 192.633 167.886 192.401 167.989 192.124L170.149 192.366C170.013 192.937 169.753 193.436 169.369 193.862C168.99 194.284 168.504 194.612 167.912 194.847C167.32 195.077 166.642 195.192 165.879 195.192ZM172.203 195V185.182H174.446V186.818H174.548C174.727 186.251 175.034 185.815 175.469 185.508C175.908 185.197 176.409 185.041 176.971 185.041C177.099 185.041 177.242 185.048 177.399 185.06C177.561 185.069 177.695 185.084 177.802 185.105V187.234C177.704 187.2 177.548 187.17 177.335 187.144C177.127 187.114 176.924 187.099 176.728 187.099C176.306 187.099 175.927 187.191 175.59 187.374C175.258 187.553 174.996 187.803 174.804 188.122C174.612 188.442 174.517 188.81 174.517 189.228V195H172.203ZM179.339 195V185.182H181.653V195H179.339ZM180.503 183.788C180.136 183.788 179.821 183.667 179.557 183.424C179.292 183.177 179.16 182.881 179.16 182.536C179.16 182.186 179.292 181.89 179.557 181.647C179.821 181.4 180.136 181.276 180.503 181.276C180.873 181.276 181.189 181.4 181.449 181.647C181.713 181.89 181.845 182.186 181.845 182.536C181.845 182.881 181.713 183.177 181.449 183.424C181.189 183.667 180.873 183.788 180.503 183.788ZM189.006 185.182V186.972H183.202V185.182H189.006ZM184.653 195V184.255C184.653 183.594 184.789 183.045 185.062 182.606C185.339 182.167 185.71 181.839 186.174 181.621C186.638 181.404 187.154 181.295 187.721 181.295C188.121 181.295 188.477 181.327 188.788 181.391C189.099 181.455 189.33 181.513 189.479 181.564L189.018 183.354C188.92 183.324 188.797 183.294 188.648 183.264C188.499 183.23 188.332 183.213 188.149 183.213C187.719 183.213 187.414 183.317 187.235 183.526C187.06 183.731 186.973 184.025 186.973 184.408V195H184.653ZM192.256 198.682C191.941 198.682 191.649 198.656 191.38 198.605C191.116 198.558 190.905 198.503 190.748 198.439L191.284 196.636C191.621 196.734 191.922 196.781 192.186 196.777C192.45 196.773 192.682 196.69 192.882 196.528C193.087 196.37 193.26 196.106 193.4 195.735L193.598 195.205L190.038 185.182H192.493L194.755 192.597H194.858L197.127 185.182H199.588L195.657 196.189C195.473 196.709 195.23 197.154 194.928 197.525C194.625 197.9 194.255 198.185 193.816 198.381C193.381 198.582 192.861 198.682 192.256 198.682Z" fill="white"/>
<path d="M378.2 351.326H375.809C375.741 350.934 375.615 350.587 375.432 350.284C375.249 349.977 375.021 349.717 374.748 349.504C374.475 349.291 374.164 349.131 373.815 349.025C373.469 348.914 373.097 348.859 372.696 348.859C371.984 348.859 371.354 349.038 370.804 349.396C370.254 349.749 369.824 350.269 369.513 350.955C369.202 351.637 369.046 352.47 369.046 353.455C369.046 354.456 369.202 355.3 369.513 355.986C369.828 356.668 370.259 357.183 370.804 357.533C371.354 357.878 371.982 358.05 372.69 358.05C373.082 358.05 373.448 357.999 373.789 357.897C374.134 357.79 374.443 357.635 374.716 357.43C374.993 357.226 375.225 356.974 375.413 356.676C375.604 356.378 375.737 356.037 375.809 355.653L378.2 355.666C378.11 356.288 377.916 356.872 377.618 357.418C377.324 357.963 376.938 358.445 376.461 358.862C375.984 359.276 375.425 359.599 374.786 359.834C374.147 360.064 373.438 360.179 372.658 360.179C371.507 360.179 370.48 359.913 369.577 359.38C368.673 358.847 367.962 358.078 367.442 357.072C366.922 356.067 366.662 354.861 366.662 353.455C366.662 352.044 366.924 350.838 367.448 349.837C367.972 348.831 368.686 348.062 369.589 347.529C370.493 346.996 371.516 346.73 372.658 346.73C373.386 346.73 374.064 346.832 374.69 347.037C375.317 347.241 375.875 347.542 376.365 347.938C376.855 348.33 377.258 348.812 377.573 349.383C377.893 349.95 378.102 350.597 378.2 351.326ZM380.269 360V350.182H382.513V351.818H382.615C382.794 351.251 383.101 350.815 383.535 350.508C383.974 350.197 384.475 350.041 385.037 350.041C385.165 350.041 385.308 350.048 385.466 350.06C385.628 350.069 385.762 350.084 385.868 350.105V352.234C385.77 352.2 385.615 352.17 385.402 352.144C385.193 352.114 384.991 352.099 384.795 352.099C384.373 352.099 383.993 352.191 383.657 352.374C383.324 352.553 383.062 352.803 382.871 353.122C382.679 353.442 382.583 353.81 382.583 354.228V360H380.269ZM390.055 360.198C389.433 360.198 388.873 360.087 388.374 359.866C387.88 359.64 387.488 359.308 387.198 358.869C386.912 358.43 386.77 357.888 386.77 357.245C386.77 356.691 386.872 356.233 387.077 355.871C387.281 355.509 387.56 355.219 387.914 355.001C388.268 354.784 388.666 354.62 389.109 354.509C389.557 354.394 390.019 354.311 390.496 354.26C391.072 354.2 391.538 354.147 391.896 354.1C392.254 354.049 392.514 353.972 392.676 353.87C392.842 353.763 392.925 353.599 392.925 353.378V353.339C392.925 352.858 392.782 352.485 392.497 352.221C392.211 351.957 391.8 351.825 391.263 351.825C390.697 351.825 390.247 351.948 389.915 352.195C389.586 352.442 389.365 352.734 389.25 353.071L387.089 352.764C387.26 352.168 387.541 351.669 387.933 351.268C388.325 350.864 388.805 350.561 389.371 350.361C389.938 350.156 390.564 350.054 391.251 350.054C391.724 350.054 392.194 350.109 392.663 350.22C393.132 350.331 393.56 350.514 393.948 350.77C394.336 351.021 394.647 351.364 394.881 351.799C395.12 352.234 395.239 352.777 395.239 353.429V360H393.015V358.651H392.938C392.797 358.924 392.599 359.18 392.344 359.418C392.092 359.653 391.775 359.842 391.391 359.987C391.012 360.128 390.567 360.198 390.055 360.198ZM390.656 358.498C391.121 358.498 391.523 358.406 391.864 358.223C392.205 358.036 392.467 357.788 392.65 357.482C392.838 357.175 392.932 356.84 392.932 356.478V355.321C392.859 355.381 392.736 355.436 392.561 355.487C392.39 355.538 392.199 355.583 391.986 355.621C391.773 355.66 391.562 355.694 391.353 355.724C391.144 355.754 390.963 355.779 390.809 355.8C390.464 355.847 390.155 355.924 389.883 356.031C389.61 356.137 389.395 356.286 389.237 356.478C389.079 356.665 389.001 356.908 389.001 357.207C389.001 357.633 389.156 357.955 389.467 358.172C389.778 358.389 390.175 358.498 390.656 358.498ZM402.539 350.182V351.972H396.735V350.182H402.539ZM398.186 360V349.255C398.186 348.594 398.322 348.045 398.595 347.606C398.872 347.167 399.243 346.839 399.707 346.621C400.172 346.404 400.687 346.295 401.254 346.295C401.655 346.295 402.01 346.327 402.322 346.391C402.633 346.455 402.863 346.513 403.012 346.564L402.552 348.354C402.454 348.324 402.33 348.294 402.181 348.264C402.032 348.23 401.866 348.213 401.682 348.213C401.252 348.213 400.947 348.317 400.768 348.526C400.594 348.731 400.506 349.025 400.506 349.408V360H398.186ZM409.254 350.182V351.972H403.61V350.182H409.254ZM405.003 347.83H407.317V357.047C407.317 357.358 407.364 357.597 407.458 357.763C407.556 357.925 407.683 358.036 407.841 358.095C407.999 358.155 408.173 358.185 408.365 358.185C408.51 358.185 408.642 358.174 408.762 358.153C408.885 358.131 408.979 358.112 409.043 358.095L409.433 359.904C409.309 359.947 409.132 359.994 408.902 360.045C408.676 360.096 408.399 360.126 408.071 360.134C407.492 360.151 406.97 360.064 406.505 359.872C406.041 359.676 405.672 359.374 405.399 358.964C405.131 358.555 404.999 358.044 405.003 357.43V347.83Z" fill="white"/>
<path d="M217 330L521 72" stroke="white" stroke-opacity="0.5" stroke-width="1.5" stroke-linejoin="round" stroke-dasharray="2 6"/>
</svg>
