<svg width="711" height="399" viewBox="0 0 711 399" fill="none" xmlns="http://www.w3.org/2000/svg">
<rect width="711" height="399" fill="#212121"/>
<path d="M217 330L521 72" stroke="white" stroke-opacity="0.5" stroke-width="1.5" stroke-linejoin="round" stroke-dasharray="2 6"/>
<path d="M217 36L211.226 46L222.774 46L217 36ZM216 330C216 330.552 216.448 331 217 331C217.552 331 218 330.552 218 330L216 330ZM217 45L216 45L216 330L217 330L218 330L218 45L217 45Z" fill="white"/>
<path d="M565 330L555 324.226V335.774L565 330ZM217 329C216.448 329 216 329.448 216 330C216 330.552 216.448 331 217 331V329ZM556 330V329L217 329V330V331L556 331V330Z" fill="white"/>
<path d="M460.933 358V348.545H462.645V352.548H467.026V348.545H468.744V358H467.026V353.984H462.645V358H460.933ZM472.573 358.143C472.124 358.143 471.719 358.063 471.359 357.903C471.002 357.74 470.719 357.5 470.509 357.183C470.303 356.866 470.2 356.475 470.2 356.01C470.2 355.61 470.274 355.279 470.422 355.018C470.569 354.756 470.771 354.547 471.026 354.39C471.282 354.233 471.57 354.114 471.89 354.034C472.213 353.951 472.547 353.891 472.892 353.854C473.307 353.811 473.644 353.773 473.903 353.739C474.161 353.702 474.349 353.647 474.466 353.573C474.586 353.496 474.646 353.377 474.646 353.217V353.19C474.646 352.842 474.543 352.573 474.336 352.382C474.13 352.191 473.833 352.096 473.445 352.096C473.036 352.096 472.711 352.185 472.471 352.363C472.234 352.542 472.074 352.753 471.991 352.996L470.431 352.774C470.554 352.343 470.757 351.983 471.04 351.694C471.323 351.402 471.67 351.183 472.079 351.038C472.488 350.891 472.941 350.817 473.436 350.817C473.778 350.817 474.118 350.857 474.456 350.937C474.795 351.017 475.104 351.149 475.384 351.334C475.664 351.515 475.889 351.763 476.058 352.077C476.231 352.391 476.317 352.783 476.317 353.254V358H474.71V357.026H474.655C474.553 357.223 474.41 357.408 474.226 357.58C474.044 357.749 473.815 357.886 473.538 357.991C473.264 358.092 472.942 358.143 472.573 358.143ZM473.007 356.915C473.342 356.915 473.633 356.849 473.879 356.717C474.126 356.581 474.315 356.403 474.447 356.181C474.583 355.96 474.65 355.718 474.65 355.456V354.621C474.598 354.664 474.509 354.704 474.383 354.741C474.26 354.778 474.121 354.81 473.967 354.838C473.813 354.865 473.661 354.89 473.51 354.912C473.359 354.933 473.229 354.952 473.118 354.967C472.868 355.001 472.645 355.056 472.448 355.133C472.251 355.21 472.096 355.318 471.982 355.456C471.868 355.592 471.811 355.767 471.811 355.983C471.811 356.29 471.924 356.523 472.148 356.68C472.373 356.837 472.659 356.915 473.007 356.915ZM477.997 358V350.909H479.618V352.091H479.692C479.821 351.682 480.042 351.366 480.356 351.145C480.673 350.92 481.035 350.808 481.441 350.808C481.534 350.808 481.637 350.812 481.751 350.821C481.867 350.828 481.964 350.838 482.041 350.854V352.391C481.971 352.366 481.858 352.345 481.704 352.326C481.554 352.305 481.407 352.294 481.266 352.294C480.961 352.294 480.687 352.36 480.444 352.493C480.204 352.622 480.015 352.802 479.876 353.033C479.738 353.263 479.669 353.53 479.669 353.831V358H477.997ZM485.491 358.125C484.934 358.125 484.435 357.982 483.995 357.695C483.555 357.409 483.207 356.994 482.952 356.449C482.697 355.904 482.569 355.242 482.569 354.464C482.569 353.676 482.698 353.011 482.957 352.469C483.218 351.925 483.571 351.514 484.014 351.237C484.457 350.957 484.951 350.817 485.496 350.817C485.911 350.817 486.253 350.888 486.521 351.029C486.788 351.168 487.001 351.335 487.158 351.532C487.315 351.726 487.436 351.909 487.522 352.082H487.592V348.545H489.267V358H487.624V356.883H487.522C487.436 357.055 487.311 357.238 487.148 357.432C486.985 357.623 486.77 357.786 486.502 357.922C486.234 358.057 485.897 358.125 485.491 358.125ZM485.957 356.754C486.311 356.754 486.613 356.658 486.862 356.467C487.111 356.273 487.301 356.004 487.43 355.659C487.559 355.315 487.624 354.913 487.624 354.455C487.624 353.996 487.559 353.597 487.43 353.259C487.304 352.92 487.116 352.657 486.867 352.469C486.621 352.282 486.317 352.188 485.957 352.188C485.585 352.188 485.274 352.285 485.025 352.479C484.775 352.673 484.588 352.94 484.462 353.282C484.335 353.624 484.272 354.014 484.272 354.455C484.272 354.898 484.335 355.293 484.462 355.641C484.591 355.986 484.78 356.258 485.029 356.458C485.282 356.655 485.591 356.754 485.957 356.754ZM497.814 350.909V352.202H493.737V350.909H497.814ZM494.744 349.21H496.415V355.867C496.415 356.092 496.449 356.264 496.516 356.384C496.587 356.501 496.679 356.581 496.793 356.624C496.907 356.667 497.033 356.689 497.172 356.689C497.277 356.689 497.372 356.681 497.458 356.666C497.547 356.65 497.615 356.637 497.661 356.624L497.943 357.931C497.854 357.962 497.726 357.995 497.56 358.032C497.397 358.069 497.196 358.091 496.96 358.097C496.541 358.109 496.164 358.046 495.828 357.908C495.493 357.766 495.227 357.548 495.03 357.252C494.836 356.957 494.741 356.587 494.744 356.144V349.21ZM502.228 358.138C501.536 358.138 500.935 357.986 500.428 357.681C499.92 357.377 499.526 356.951 499.246 356.403C498.969 355.855 498.83 355.215 498.83 354.482C498.83 353.75 498.969 353.108 499.246 352.557C499.526 352.006 499.92 351.578 500.428 351.274C500.935 350.969 501.536 350.817 502.228 350.817C502.921 350.817 503.521 350.969 504.028 351.274C504.536 351.578 504.929 352.006 505.206 352.557C505.486 353.108 505.626 353.75 505.626 354.482C505.626 355.215 505.486 355.855 505.206 356.403C504.929 356.951 504.536 357.377 504.028 357.681C503.521 357.986 502.921 358.138 502.228 358.138ZM502.237 356.8C502.613 356.8 502.927 356.697 503.179 356.49C503.431 356.281 503.619 356.001 503.742 355.65C503.868 355.299 503.932 354.908 503.932 354.478C503.932 354.044 503.868 353.651 503.742 353.3C503.619 352.946 503.431 352.665 503.179 352.456C502.927 352.246 502.613 352.142 502.237 352.142C501.853 352.142 501.533 352.246 501.277 352.456C501.025 352.665 500.835 352.946 500.709 353.3C500.586 353.651 500.525 354.044 500.525 354.478C500.525 354.908 500.586 355.299 500.709 355.65C500.835 356.001 501.025 356.281 501.277 356.49C501.533 356.697 501.853 356.8 502.237 356.8ZM513.362 358.138C512.654 358.138 512.046 357.983 511.538 357.672C511.034 357.361 510.644 356.932 510.37 356.384C510.1 355.833 509.964 355.199 509.964 354.482C509.964 353.762 510.103 353.127 510.38 352.576C510.657 352.022 511.047 351.591 511.552 351.283C512.06 350.972 512.66 350.817 513.353 350.817C513.928 350.817 514.438 350.923 514.881 351.135C515.327 351.345 515.682 351.642 515.947 352.026C516.212 352.408 516.363 352.854 516.4 353.365H514.802C514.738 353.023 514.584 352.739 514.341 352.511C514.1 352.28 513.779 352.165 513.376 352.165C513.034 352.165 512.734 352.257 512.475 352.442C512.217 352.623 512.015 352.885 511.871 353.227C511.729 353.568 511.658 353.978 511.658 354.455C511.658 354.938 511.729 355.353 511.871 355.701C512.012 356.046 512.211 356.312 512.466 356.5C512.725 356.684 513.028 356.777 513.376 356.777C513.622 356.777 513.842 356.73 514.036 356.638C514.233 356.543 514.397 356.406 514.53 356.227C514.662 356.049 514.753 355.832 514.802 355.576H516.4C516.359 356.078 516.212 356.523 515.956 356.911C515.701 357.295 515.353 357.597 514.913 357.815C514.473 358.031 513.956 358.138 513.362 358.138ZM517.772 358V350.909H519.392V352.091H519.466C519.595 351.682 519.817 351.366 520.131 351.145C520.448 350.92 520.809 350.808 521.216 350.808C521.308 350.808 521.411 350.812 521.525 350.821C521.642 350.828 521.739 350.838 521.816 350.854V352.391C521.745 352.366 521.633 352.345 521.479 352.326C521.328 352.305 521.182 352.294 521.04 352.294C520.736 352.294 520.462 352.36 520.218 352.493C519.978 352.622 519.789 352.802 519.651 353.033C519.512 353.263 519.443 353.53 519.443 353.831V358H517.772ZM524.84 358.143C524.39 358.143 523.986 358.063 523.625 357.903C523.268 357.74 522.985 357.5 522.776 357.183C522.57 356.866 522.467 356.475 522.467 356.01C522.467 355.61 522.541 355.279 522.688 355.018C522.836 354.756 523.038 354.547 523.293 354.39C523.549 354.233 523.836 354.114 524.156 354.034C524.479 353.951 524.813 353.891 525.158 353.854C525.574 353.811 525.911 353.773 526.169 353.739C526.428 353.702 526.615 353.647 526.732 353.573C526.852 353.496 526.912 353.377 526.912 353.217V353.19C526.912 352.842 526.809 352.573 526.603 352.382C526.397 352.191 526.1 352.096 525.712 352.096C525.303 352.096 524.978 352.185 524.738 352.363C524.501 352.542 524.341 352.753 524.258 352.996L522.698 352.774C522.821 352.343 523.024 351.983 523.307 351.694C523.59 351.402 523.936 351.183 524.346 351.038C524.755 350.891 525.207 350.817 525.703 350.817C526.044 350.817 526.385 350.857 526.723 350.937C527.062 351.017 527.371 351.149 527.651 351.334C527.931 351.515 528.156 351.763 528.325 352.077C528.497 352.391 528.584 352.783 528.584 353.254V358H526.977V357.026H526.922C526.82 357.223 526.677 357.408 526.492 357.58C526.311 357.749 526.081 357.886 525.804 357.991C525.531 358.092 525.209 358.143 524.84 358.143ZM525.274 356.915C525.609 356.915 525.9 356.849 526.146 356.717C526.392 356.581 526.582 356.403 526.714 356.181C526.849 355.96 526.917 355.718 526.917 355.456V354.621C526.865 354.664 526.775 354.704 526.649 354.741C526.526 354.778 526.388 354.81 526.234 354.838C526.08 354.865 525.928 354.89 525.777 354.912C525.626 354.933 525.495 354.952 525.384 354.967C525.135 355.001 524.912 355.056 524.715 355.133C524.518 355.21 524.363 355.318 524.249 355.456C524.135 355.592 524.078 355.767 524.078 355.983C524.078 356.29 524.19 356.523 524.415 356.68C524.64 356.837 524.926 356.915 525.274 356.915ZM533.856 350.909V352.202H529.664V350.909H533.856ZM530.712 358V350.24C530.712 349.763 530.81 349.366 531.007 349.049C531.207 348.732 531.475 348.495 531.81 348.338C532.146 348.181 532.518 348.102 532.928 348.102C533.217 348.102 533.474 348.125 533.699 348.172C533.923 348.218 534.089 348.259 534.197 348.296L533.865 349.589C533.794 349.567 533.705 349.546 533.597 349.524C533.489 349.5 533.369 349.487 533.237 349.487C532.926 349.487 532.706 349.563 532.577 349.713C532.451 349.861 532.388 350.074 532.388 350.35V358H530.712ZM538.705 350.909V352.202H534.629V350.909H538.705ZM535.635 349.21H537.306V355.867C537.306 356.092 537.34 356.264 537.408 356.384C537.479 356.501 537.571 356.581 537.685 356.624C537.799 356.667 537.925 356.689 538.063 356.689C538.168 356.689 538.264 356.681 538.35 356.666C538.439 356.65 538.507 356.637 538.553 356.624L538.834 357.931C538.745 357.962 538.617 357.995 538.451 358.032C538.288 358.069 538.088 358.091 537.851 358.097C537.433 358.109 537.056 358.046 536.72 357.908C536.385 357.766 536.118 357.548 535.921 357.252C535.728 356.957 535.632 356.587 535.635 356.144V349.21Z" fill="white" fill-opacity="0.5"/>
<path d="M228.933 358V348.545H235.082V349.981H230.645V352.548H234.763V353.984H230.645V356.564H235.119V358H228.933ZM238.796 358.143C238.346 358.143 237.942 358.063 237.581 357.903C237.224 357.74 236.941 357.5 236.732 357.183C236.526 356.866 236.423 356.475 236.423 356.01C236.423 355.61 236.497 355.279 236.644 355.018C236.792 354.756 236.994 354.547 237.249 354.39C237.505 354.233 237.792 354.114 238.112 354.034C238.436 353.951 238.769 353.891 239.114 353.854C239.53 353.811 239.867 353.773 240.125 353.739C240.384 353.702 240.571 353.647 240.688 353.573C240.808 353.496 240.868 353.377 240.868 353.217V353.19C240.868 352.842 240.765 352.573 240.559 352.382C240.353 352.191 240.056 352.096 239.668 352.096C239.259 352.096 238.934 352.185 238.694 352.363C238.457 352.542 238.297 352.753 238.214 352.996L236.654 352.774C236.777 352.343 236.98 351.983 237.263 351.694C237.546 351.402 237.892 351.183 238.302 351.038C238.711 350.891 239.163 350.817 239.659 350.817C240.001 350.817 240.341 350.857 240.679 350.937C241.018 351.017 241.327 351.149 241.607 351.334C241.887 351.515 242.112 351.763 242.281 352.077C242.453 352.391 242.54 352.783 242.54 353.254V358H240.933V357.026H240.878C240.776 357.223 240.633 357.408 240.448 357.58C240.267 357.749 240.037 357.886 239.76 357.991C239.487 358.092 239.165 358.143 238.796 358.143ZM239.23 356.915C239.565 356.915 239.856 356.849 240.102 356.717C240.348 356.581 240.538 356.403 240.67 356.181C240.805 355.96 240.873 355.718 240.873 355.456V354.621C240.821 354.664 240.731 354.704 240.605 354.741C240.482 354.778 240.344 354.81 240.19 354.838C240.036 354.865 239.884 354.89 239.733 354.912C239.582 354.933 239.451 354.952 239.34 354.967C239.091 355.001 238.868 355.056 238.671 355.133C238.474 355.21 238.319 355.318 238.205 355.456C238.091 355.592 238.034 355.767 238.034 355.983C238.034 356.29 238.146 356.523 238.371 356.68C238.596 356.837 238.882 356.915 239.23 356.915ZM249.824 352.783L248.301 352.95C248.258 352.796 248.182 352.651 248.075 352.516C247.97 352.38 247.829 352.271 247.65 352.188C247.472 352.105 247.253 352.063 246.994 352.063C246.647 352.063 246.354 352.139 246.117 352.289C245.883 352.44 245.768 352.636 245.771 352.876C245.768 353.082 245.843 353.25 245.997 353.379C246.154 353.508 246.413 353.614 246.773 353.697L247.982 353.956C248.653 354.101 249.152 354.33 249.478 354.644C249.807 354.958 249.974 355.369 249.977 355.876C249.974 356.323 249.843 356.717 249.584 357.058C249.329 357.397 248.973 357.661 248.518 357.852C248.062 358.043 247.539 358.138 246.948 358.138C246.08 358.138 245.382 357.957 244.852 357.594C244.323 357.228 244.008 356.718 243.906 356.066L245.536 355.909C245.61 356.229 245.767 356.47 246.007 356.634C246.247 356.797 246.559 356.878 246.944 356.878C247.341 356.878 247.659 356.797 247.899 356.634C248.142 356.47 248.264 356.269 248.264 356.029C248.264 355.826 248.186 355.658 248.029 355.526C247.875 355.393 247.635 355.292 247.308 355.221L246.099 354.967C245.419 354.825 244.916 354.587 244.589 354.251C244.263 353.913 244.102 353.485 244.105 352.968C244.102 352.531 244.22 352.152 244.46 351.832C244.703 351.509 245.04 351.26 245.471 351.085C245.905 350.906 246.405 350.817 246.971 350.817C247.802 350.817 248.456 350.994 248.933 351.348C249.414 351.702 249.711 352.18 249.824 352.783ZM252.393 360.659C252.166 360.659 251.955 360.641 251.761 360.604C251.57 360.57 251.418 360.53 251.304 360.484L251.692 359.182C251.935 359.253 252.152 359.286 252.343 359.283C252.533 359.28 252.701 359.22 252.846 359.103C252.994 358.989 253.118 358.799 253.22 358.531L253.363 358.148L250.792 350.909H252.564L254.199 356.264H254.272L255.911 350.909H257.689L254.849 358.859C254.717 359.234 254.542 359.556 254.323 359.824C254.105 360.094 253.837 360.301 253.52 360.442C253.206 360.587 252.83 360.659 252.393 360.659ZM265.61 350.909V352.202H261.534V350.909H265.61ZM262.54 349.21H264.212V355.867C264.212 356.092 264.246 356.264 264.313 356.384C264.384 356.501 264.476 356.581 264.59 356.624C264.704 356.667 264.83 356.689 264.969 356.689C265.073 356.689 265.169 356.681 265.255 356.666C265.344 356.65 265.412 356.637 265.458 356.624L265.74 357.931C265.65 357.962 265.523 357.995 265.357 358.032C265.193 358.069 264.993 358.091 264.756 358.097C264.338 358.109 263.961 358.046 263.625 357.908C263.29 357.766 263.024 357.548 262.827 357.252C262.633 356.957 262.537 356.587 262.54 356.144V349.21ZM270.025 358.138C269.332 358.138 268.732 357.986 268.225 357.681C267.717 357.377 267.323 356.951 267.043 356.403C266.766 355.855 266.627 355.215 266.627 354.482C266.627 353.75 266.766 353.108 267.043 352.557C267.323 352.006 267.717 351.578 268.225 351.274C268.732 350.969 269.332 350.817 270.025 350.817C270.717 350.817 271.318 350.969 271.825 351.274C272.333 351.578 272.726 352.006 273.003 352.557C273.283 353.108 273.423 353.75 273.423 354.482C273.423 355.215 273.283 355.855 273.003 356.403C272.726 356.951 272.333 357.377 271.825 357.681C271.318 357.986 270.717 358.138 270.025 358.138ZM270.034 356.8C270.41 356.8 270.724 356.697 270.976 356.49C271.228 356.281 271.416 356.001 271.539 355.65C271.665 355.299 271.728 354.908 271.728 354.478C271.728 354.044 271.665 353.651 271.539 353.3C271.416 352.946 271.228 352.665 270.976 352.456C270.724 352.246 270.41 352.142 270.034 352.142C269.649 352.142 269.329 352.246 269.074 352.456C268.822 352.665 268.632 352.946 268.506 353.3C268.383 353.651 268.321 354.044 268.321 354.478C268.321 354.908 268.383 355.299 268.506 355.65C268.632 356.001 268.822 356.281 269.074 356.49C269.329 356.697 269.649 356.8 270.034 356.8ZM281.159 358.138C280.451 358.138 279.843 357.983 279.335 357.672C278.83 357.361 278.441 356.932 278.167 356.384C277.896 355.833 277.761 355.199 277.761 354.482C277.761 353.762 277.9 353.127 278.176 352.576C278.453 352.022 278.844 351.591 279.349 351.283C279.857 350.972 280.457 350.817 281.15 350.817C281.725 350.817 282.234 350.923 282.678 351.135C283.124 351.345 283.479 351.642 283.744 352.026C284.009 352.408 284.159 352.854 284.196 353.365H282.599C282.534 353.023 282.381 352.739 282.137 352.511C281.897 352.28 281.576 352.165 281.173 352.165C280.831 352.165 280.531 352.257 280.272 352.442C280.014 352.623 279.812 352.885 279.668 353.227C279.526 353.568 279.455 353.978 279.455 354.455C279.455 354.938 279.526 355.353 279.668 355.701C279.809 356.046 280.008 356.312 280.263 356.5C280.522 356.684 280.825 356.777 281.173 356.777C281.419 356.777 281.639 356.73 281.833 356.638C282.03 356.543 282.194 356.406 282.327 356.227C282.459 356.049 282.55 355.832 282.599 355.576H284.196C284.156 356.078 284.009 356.523 283.753 356.911C283.498 357.295 283.15 357.597 282.71 357.815C282.27 358.031 281.753 358.138 281.159 358.138ZM285.569 358V350.909H287.189V352.091H287.263C287.392 351.682 287.614 351.366 287.928 351.145C288.245 350.92 288.606 350.808 289.013 350.808C289.105 350.808 289.208 350.812 289.322 350.821C289.439 350.828 289.536 350.838 289.613 350.854V352.391C289.542 352.366 289.43 352.345 289.276 352.326C289.125 352.305 288.979 352.294 288.837 352.294C288.532 352.294 288.258 352.36 288.015 352.493C287.775 352.622 287.586 352.802 287.448 353.033C287.309 353.263 287.24 353.53 287.24 353.831V358H285.569ZM292.636 358.143C292.187 358.143 291.782 358.063 291.422 357.903C291.065 357.74 290.782 357.5 290.573 357.183C290.367 356.866 290.264 356.475 290.264 356.01C290.264 355.61 290.337 355.279 290.485 355.018C290.633 354.756 290.834 354.547 291.09 354.39C291.345 354.233 291.633 354.114 291.953 354.034C292.276 353.951 292.61 353.891 292.955 353.854C293.37 353.811 293.707 353.773 293.966 353.739C294.225 353.702 294.412 353.647 294.529 353.573C294.649 353.496 294.709 353.377 294.709 353.217V353.19C294.709 352.842 294.606 352.573 294.4 352.382C294.194 352.191 293.897 352.096 293.509 352.096C293.1 352.096 292.775 352.185 292.535 352.363C292.298 352.542 292.138 352.753 292.055 352.996L290.494 352.774C290.618 352.343 290.821 351.983 291.104 351.694C291.387 351.402 291.733 351.183 292.142 351.038C292.552 350.891 293.004 350.817 293.5 350.817C293.841 350.817 294.181 350.857 294.52 350.937C294.859 351.017 295.168 351.149 295.448 351.334C295.728 351.515 295.953 351.763 296.122 352.077C296.294 352.391 296.38 352.783 296.38 353.254V358H294.774V357.026H294.718C294.617 357.223 294.474 357.408 294.289 357.58C294.108 357.749 293.878 357.886 293.601 357.991C293.327 358.092 293.006 358.143 292.636 358.143ZM293.07 356.915C293.406 356.915 293.697 356.849 293.943 356.717C294.189 356.581 294.378 356.403 294.511 356.181C294.646 355.96 294.714 355.718 294.714 355.456V354.621C294.662 354.664 294.572 354.704 294.446 354.741C294.323 354.778 294.185 354.81 294.031 354.838C293.877 354.865 293.724 354.89 293.574 354.912C293.423 354.933 293.292 354.952 293.181 354.967C292.932 355.001 292.709 355.056 292.512 355.133C292.315 355.21 292.159 355.318 292.046 355.456C291.932 355.592 291.875 355.767 291.875 355.983C291.875 356.29 291.987 356.523 292.212 356.68C292.436 356.837 292.723 356.915 293.07 356.915ZM301.652 350.909V352.202H297.461V350.909H301.652ZM298.509 358V350.24C298.509 349.763 298.607 349.366 298.804 349.049C299.004 348.732 299.272 348.495 299.607 348.338C299.943 348.181 300.315 348.102 300.725 348.102C301.014 348.102 301.271 348.125 301.495 348.172C301.72 348.218 301.886 348.259 301.994 348.296L301.662 349.589C301.591 349.567 301.502 349.546 301.394 349.524C301.286 349.5 301.166 349.487 301.034 349.487C300.723 349.487 300.503 349.563 300.374 349.713C300.247 349.861 300.184 350.074 300.184 350.35V358H298.509ZM306.502 350.909V352.202H302.426V350.909H306.502ZM303.432 349.21H305.103V355.867C305.103 356.092 305.137 356.264 305.205 356.384C305.276 356.501 305.368 356.581 305.482 356.624C305.596 356.667 305.722 356.689 305.86 356.689C305.965 356.689 306.06 356.681 306.147 356.666C306.236 356.65 306.304 356.637 306.35 356.624L306.631 357.931C306.542 357.962 306.414 357.995 306.248 358.032C306.085 358.069 305.885 358.091 305.648 358.097C305.229 358.109 304.852 358.046 304.517 357.908C304.181 357.766 303.915 357.548 303.718 357.252C303.524 356.957 303.429 356.587 303.432 356.144V349.21Z" fill="white" fill-opacity="0.5"/>
<path d="M254.933 314V304.545H256.645V312.564H260.809V314H254.933ZM265.315 314.138C264.623 314.138 264.022 313.986 263.515 313.681C263.007 313.377 262.613 312.951 262.333 312.403C262.056 311.855 261.917 311.215 261.917 310.482C261.917 309.75 262.056 309.108 262.333 308.557C262.613 308.006 263.007 307.578 263.515 307.274C264.022 306.969 264.623 306.817 265.315 306.817C266.007 306.817 266.608 306.969 267.115 307.274C267.623 307.578 268.016 308.006 268.293 308.557C268.573 309.108 268.713 309.75 268.713 310.482C268.713 311.215 268.573 311.855 268.293 312.403C268.016 312.951 267.623 313.377 267.115 313.681C266.608 313.986 266.007 314.138 265.315 314.138ZM265.324 312.8C265.7 312.8 266.014 312.697 266.266 312.49C266.518 312.281 266.706 312.001 266.829 311.65C266.955 311.299 267.018 310.908 267.018 310.478C267.018 310.044 266.955 309.651 266.829 309.3C266.706 308.946 266.518 308.665 266.266 308.456C266.014 308.246 265.7 308.142 265.324 308.142C264.94 308.142 264.619 308.246 264.364 308.456C264.112 308.665 263.922 308.946 263.796 309.3C263.673 309.651 263.612 310.044 263.612 310.478C263.612 310.908 263.673 311.299 263.796 311.65C263.922 312.001 264.112 312.281 264.364 312.49C264.619 312.697 264.94 312.8 265.324 312.8ZM273.215 316.807C272.615 316.807 272.099 316.725 271.668 316.562C271.238 316.402 270.891 316.187 270.63 315.916C270.368 315.645 270.187 315.345 270.085 315.016L271.59 314.651C271.658 314.789 271.756 314.926 271.885 315.062C272.015 315.2 272.189 315.314 272.407 315.403C272.629 315.496 272.907 315.542 273.243 315.542C273.717 315.542 274.109 315.426 274.42 315.196C274.731 314.968 274.886 314.592 274.886 314.069V312.726H274.803C274.717 312.898 274.591 313.075 274.424 313.257C274.261 313.438 274.044 313.591 273.774 313.714C273.506 313.837 273.169 313.898 272.763 313.898C272.218 313.898 271.724 313.771 271.281 313.515C270.841 313.257 270.49 312.872 270.228 312.361C269.97 311.847 269.84 311.204 269.84 310.431C269.84 309.653 269.97 308.996 270.228 308.46C270.49 307.922 270.842 307.514 271.285 307.237C271.728 306.957 272.222 306.817 272.767 306.817C273.183 306.817 273.524 306.888 273.792 307.029C274.063 307.168 274.278 307.335 274.438 307.532C274.598 307.726 274.72 307.909 274.803 308.082H274.895V306.909H276.543V314.115C276.543 314.722 276.399 315.223 276.109 315.62C275.82 316.017 275.425 316.314 274.923 316.511C274.421 316.708 273.852 316.807 273.215 316.807ZM273.229 312.587C273.583 312.587 273.884 312.501 274.134 312.329C274.383 312.156 274.572 311.909 274.701 311.586C274.831 311.262 274.895 310.875 274.895 310.422C274.895 309.976 274.831 309.585 274.701 309.25C274.575 308.914 274.388 308.654 274.138 308.469C273.892 308.282 273.589 308.188 273.229 308.188C272.856 308.188 272.546 308.285 272.296 308.479C272.047 308.673 271.859 308.939 271.733 309.277C271.607 309.613 271.544 309.994 271.544 310.422C271.544 310.856 271.607 311.236 271.733 311.562C271.862 311.886 272.052 312.138 272.301 312.32C272.553 312.498 272.863 312.587 273.229 312.587ZM278.256 314V306.909H279.927V314H278.256ZM279.096 305.903C278.832 305.903 278.604 305.815 278.413 305.64C278.222 305.461 278.127 305.247 278.127 304.998C278.127 304.746 278.222 304.532 278.413 304.356C278.604 304.178 278.832 304.088 279.096 304.088C279.364 304.088 279.592 304.178 279.78 304.356C279.97 304.532 280.066 304.746 280.066 304.998C280.066 305.247 279.97 305.461 279.78 305.64C279.592 305.815 279.364 305.903 279.096 305.903ZM283.317 309.845V314H281.646V306.909H283.243V308.114H283.326C283.489 307.717 283.749 307.402 284.106 307.168C284.466 306.934 284.911 306.817 285.441 306.817C285.93 306.817 286.356 306.921 286.719 307.131C287.086 307.34 287.369 307.643 287.569 308.04C287.772 308.437 287.872 308.919 287.869 309.485V314H286.198V309.744C286.198 309.27 286.075 308.899 285.828 308.631C285.585 308.363 285.248 308.229 284.817 308.229C284.525 308.229 284.265 308.294 284.037 308.423C283.812 308.549 283.635 308.733 283.506 308.973C283.38 309.213 283.317 309.504 283.317 309.845ZM292.792 316.659V306.909H294.436V308.082H294.533C294.619 307.909 294.74 307.726 294.897 307.532C295.054 307.335 295.267 307.168 295.534 307.029C295.802 306.888 296.144 306.817 296.559 306.817C297.107 306.817 297.601 306.957 298.041 307.237C298.484 307.514 298.835 307.925 299.094 308.469C299.355 309.011 299.486 309.676 299.486 310.464C299.486 311.242 299.358 311.904 299.103 312.449C298.848 312.994 298.5 313.409 298.06 313.695C297.62 313.982 297.121 314.125 296.564 314.125C296.158 314.125 295.821 314.057 295.553 313.922C295.285 313.786 295.07 313.623 294.907 313.432C294.747 313.238 294.622 313.055 294.533 312.883H294.463V316.659H292.792ZM294.431 310.455C294.431 310.913 294.496 311.315 294.625 311.659C294.757 312.004 294.947 312.273 295.193 312.467C295.442 312.658 295.744 312.754 296.098 312.754C296.467 312.754 296.776 312.655 297.026 312.458C297.275 312.258 297.463 311.986 297.589 311.641C297.718 311.293 297.783 310.898 297.783 310.455C297.783 310.014 297.72 309.624 297.593 309.282C297.467 308.94 297.279 308.673 297.03 308.479C296.781 308.285 296.47 308.188 296.098 308.188C295.741 308.188 295.438 308.282 295.188 308.469C294.939 308.657 294.75 308.92 294.62 309.259C294.494 309.597 294.431 309.996 294.431 310.455ZM302.958 314.143C302.508 314.143 302.104 314.063 301.744 313.903C301.387 313.74 301.103 313.5 300.894 313.183C300.688 312.866 300.585 312.475 300.585 312.01C300.585 311.61 300.659 311.279 300.806 311.018C300.954 310.756 301.156 310.547 301.411 310.39C301.667 310.233 301.954 310.114 302.275 310.034C302.598 309.951 302.932 309.891 303.276 309.854C303.692 309.811 304.029 309.773 304.287 309.739C304.546 309.702 304.734 309.647 304.85 309.573C304.971 309.496 305.031 309.377 305.031 309.217V309.19C305.031 308.842 304.927 308.573 304.721 308.382C304.515 308.191 304.218 308.096 303.83 308.096C303.421 308.096 303.096 308.185 302.856 308.363C302.619 308.542 302.459 308.753 302.376 308.996L300.816 308.774C300.939 308.343 301.142 307.983 301.425 307.694C301.708 307.402 302.054 307.183 302.464 307.038C302.873 306.891 303.326 306.817 303.821 306.817C304.163 306.817 304.503 306.857 304.841 306.937C305.18 307.017 305.489 307.149 305.769 307.334C306.049 307.515 306.274 307.763 306.443 308.077C306.616 308.391 306.702 308.783 306.702 309.254V314H305.095V313.026H305.04C304.938 313.223 304.795 313.408 304.61 313.58C304.429 313.749 304.2 313.886 303.923 313.991C303.649 314.092 303.327 314.143 302.958 314.143ZM303.392 312.915C303.727 312.915 304.018 312.849 304.264 312.717C304.51 312.581 304.7 312.403 304.832 312.181C304.967 311.96 305.035 311.718 305.035 311.456V310.621C304.983 310.664 304.894 310.704 304.767 310.741C304.644 310.778 304.506 310.81 304.352 310.838C304.198 310.865 304.046 310.89 303.895 310.912C303.744 310.933 303.613 310.952 303.502 310.967C303.253 311.001 303.03 311.056 302.833 311.133C302.636 311.21 302.481 311.318 302.367 311.456C302.253 311.592 302.196 311.767 302.196 311.983C302.196 312.29 302.308 312.523 302.533 312.68C302.758 312.837 303.044 312.915 303.392 312.915ZM311.466 316.807C310.866 316.807 310.35 316.725 309.919 316.562C309.489 316.402 309.142 316.187 308.881 315.916C308.619 315.645 308.438 315.345 308.336 315.016L309.841 314.651C309.909 314.789 310.007 314.926 310.136 315.062C310.266 315.2 310.44 315.314 310.658 315.403C310.88 315.496 311.158 315.542 311.494 315.542C311.968 315.542 312.36 315.426 312.671 315.196C312.982 314.968 313.137 314.592 313.137 314.069V312.726H313.054C312.968 312.898 312.842 313.075 312.675 313.257C312.512 313.438 312.295 313.591 312.025 313.714C311.757 313.837 311.42 313.898 311.013 313.898C310.469 313.898 309.975 313.771 309.532 313.515C309.092 313.257 308.741 312.872 308.479 312.361C308.221 311.847 308.091 311.204 308.091 310.431C308.091 309.653 308.221 308.996 308.479 308.46C308.741 307.922 309.093 307.514 309.536 307.237C309.979 306.957 310.473 306.817 311.018 306.817C311.434 306.817 311.775 306.888 312.043 307.029C312.314 307.168 312.529 307.335 312.689 307.532C312.849 307.726 312.971 307.909 313.054 308.082H313.146V306.909H314.794V314.115C314.794 314.722 314.65 315.223 314.36 315.62C314.071 316.017 313.676 316.314 313.174 316.511C312.672 316.708 312.103 316.807 311.466 316.807ZM311.48 312.587C311.834 312.587 312.135 312.501 312.385 312.329C312.634 312.156 312.823 311.909 312.952 311.586C313.082 311.262 313.146 310.875 313.146 310.422C313.146 309.976 313.082 309.585 312.952 309.25C312.826 308.914 312.638 308.654 312.389 308.469C312.143 308.282 311.84 308.188 311.48 308.188C311.107 308.188 310.797 308.285 310.547 308.479C310.298 308.673 310.11 308.939 309.984 309.277C309.858 309.613 309.795 309.994 309.795 310.422C309.795 310.856 309.858 311.236 309.984 311.562C310.113 311.886 310.303 312.138 310.552 312.32C310.804 312.498 311.114 312.587 311.48 312.587ZM319.646 314.138C318.935 314.138 318.321 313.991 317.804 313.695C317.29 313.397 316.895 312.975 316.618 312.43C316.341 311.883 316.202 311.238 316.202 310.496C316.202 309.767 316.341 309.127 316.618 308.576C316.898 308.022 317.289 307.591 317.79 307.283C318.292 306.972 318.882 306.817 319.559 306.817C319.996 306.817 320.408 306.888 320.796 307.029C321.187 307.168 321.531 307.383 321.83 307.675C322.132 307.968 322.368 308.34 322.541 308.793C322.713 309.242 322.799 309.777 322.799 310.399V310.912H316.987V309.785H321.197C321.194 309.465 321.125 309.18 320.99 308.931C320.854 308.679 320.665 308.48 320.422 308.336C320.182 308.191 319.902 308.119 319.582 308.119C319.24 308.119 318.94 308.202 318.681 308.368C318.423 308.531 318.221 308.746 318.077 309.014C317.935 309.279 317.863 309.57 317.86 309.887V310.87C317.86 311.282 317.935 311.636 318.086 311.932C318.237 312.224 318.448 312.449 318.718 312.606C318.989 312.76 319.306 312.837 319.669 312.837C319.913 312.837 320.133 312.803 320.33 312.735C320.527 312.664 320.697 312.561 320.842 312.426C320.987 312.29 321.096 312.123 321.17 311.923L322.73 312.098C322.632 312.51 322.444 312.871 322.167 313.178C321.893 313.483 321.542 313.72 321.114 313.889C320.687 314.055 320.197 314.138 319.646 314.138Z" fill="#5EB44C"/>
<path d="M115.836 323V313.545H121.985V314.981H117.549V317.548H121.666V318.984H117.549V321.564H122.022V323H115.836ZM125.699 323.143C125.25 323.143 124.845 323.063 124.485 322.903C124.128 322.74 123.845 322.5 123.635 322.183C123.429 321.866 123.326 321.475 123.326 321.01C123.326 320.61 123.4 320.279 123.548 320.018C123.695 319.756 123.897 319.547 124.152 319.39C124.408 319.233 124.696 319.114 125.016 319.034C125.339 318.951 125.673 318.891 126.017 318.854C126.433 318.811 126.77 318.773 127.028 318.739C127.287 318.702 127.475 318.647 127.592 318.573C127.712 318.496 127.772 318.377 127.772 318.217V318.19C127.772 317.842 127.669 317.573 127.462 317.382C127.256 317.191 126.959 317.096 126.571 317.096C126.162 317.096 125.837 317.185 125.597 317.363C125.36 317.542 125.2 317.753 125.117 317.996L123.557 317.774C123.68 317.343 123.883 316.983 124.166 316.694C124.449 316.402 124.796 316.183 125.205 316.038C125.614 315.891 126.067 315.817 126.562 315.817C126.904 315.817 127.244 315.857 127.582 315.937C127.921 316.017 128.23 316.149 128.51 316.334C128.79 316.515 129.015 316.763 129.184 317.077C129.357 317.391 129.443 317.783 129.443 318.254V323H127.836V322.026H127.781C127.679 322.223 127.536 322.408 127.352 322.58C127.17 322.749 126.941 322.886 126.664 322.991C126.39 323.092 126.068 323.143 125.699 323.143ZM126.133 321.915C126.468 321.915 126.759 321.849 127.005 321.717C127.252 321.581 127.441 321.403 127.573 321.181C127.709 320.96 127.776 320.718 127.776 320.456V319.621C127.724 319.664 127.635 319.704 127.509 319.741C127.386 319.778 127.247 319.81 127.093 319.838C126.939 319.865 126.787 319.89 126.636 319.912C126.485 319.933 126.354 319.952 126.244 319.967C125.994 320.001 125.771 320.056 125.574 320.133C125.377 320.21 125.222 320.318 125.108 320.456C124.994 320.592 124.937 320.767 124.937 320.983C124.937 321.29 125.05 321.523 125.274 321.68C125.499 321.837 125.785 321.915 126.133 321.915ZM136.728 317.783L135.204 317.95C135.161 317.796 135.086 317.651 134.978 317.516C134.873 317.38 134.732 317.271 134.553 317.188C134.375 317.105 134.156 317.063 133.898 317.063C133.55 317.063 133.258 317.139 133.021 317.289C132.787 317.44 132.671 317.636 132.674 317.876C132.671 318.082 132.747 318.25 132.901 318.379C133.058 318.508 133.316 318.614 133.676 318.697L134.886 318.956C135.557 319.101 136.055 319.33 136.381 319.644C136.711 319.958 136.877 320.369 136.88 320.876C136.877 321.323 136.746 321.717 136.488 322.058C136.232 322.397 135.877 322.661 135.421 322.852C134.966 323.043 134.443 323.138 133.852 323.138C132.984 323.138 132.285 322.957 131.756 322.594C131.226 322.228 130.911 321.718 130.809 321.066L132.439 320.909C132.513 321.229 132.67 321.47 132.91 321.634C133.15 321.797 133.462 321.878 133.847 321.878C134.244 321.878 134.563 321.797 134.803 321.634C135.046 321.47 135.167 321.269 135.167 321.029C135.167 320.826 135.089 320.658 134.932 320.526C134.778 320.393 134.538 320.292 134.212 320.221L133.002 319.967C132.322 319.825 131.819 319.587 131.493 319.251C131.166 318.913 131.005 318.485 131.008 317.968C131.005 317.531 131.123 317.152 131.363 316.832C131.607 316.509 131.944 316.26 132.374 316.085C132.808 315.906 133.308 315.817 133.875 315.817C134.706 315.817 135.36 315.994 135.837 316.348C136.317 316.702 136.614 317.18 136.728 317.783ZM139.297 325.659C139.069 325.659 138.858 325.641 138.664 325.604C138.474 325.57 138.321 325.53 138.207 325.484L138.595 324.182C138.838 324.253 139.055 324.286 139.246 324.283C139.437 324.28 139.605 324.22 139.749 324.103C139.897 323.989 140.022 323.799 140.123 323.531L140.266 323.148L137.695 315.909H139.468L141.102 321.264H141.176L142.815 315.909H144.592L141.753 323.859C141.62 324.234 141.445 324.556 141.226 324.824C141.008 325.094 140.74 325.301 140.423 325.442C140.109 325.587 139.734 325.659 139.297 325.659ZM152.514 315.909V317.202H148.437V315.909H152.514ZM149.444 314.21H151.115V320.867C151.115 321.092 151.149 321.264 151.217 321.384C151.287 321.501 151.38 321.581 151.494 321.624C151.607 321.667 151.734 321.689 151.872 321.689C151.977 321.689 152.072 321.681 152.158 321.666C152.248 321.65 152.315 321.637 152.361 321.624L152.643 322.931C152.554 322.962 152.426 322.995 152.26 323.032C152.097 323.069 151.897 323.091 151.66 323.097C151.241 323.109 150.864 323.046 150.529 322.908C150.193 322.766 149.927 322.548 149.73 322.252C149.536 321.957 149.441 321.587 149.444 321.144V314.21ZM156.928 323.138C156.236 323.138 155.636 322.986 155.128 322.681C154.62 322.377 154.226 321.951 153.946 321.403C153.669 320.855 153.531 320.215 153.531 319.482C153.531 318.75 153.669 318.108 153.946 317.557C154.226 317.006 154.62 316.578 155.128 316.274C155.636 315.969 156.236 315.817 156.928 315.817C157.621 315.817 158.221 315.969 158.729 316.274C159.237 316.578 159.629 317.006 159.906 317.557C160.186 318.108 160.326 318.75 160.326 319.482C160.326 320.215 160.186 320.855 159.906 321.403C159.629 321.951 159.237 322.377 158.729 322.681C158.221 322.986 157.621 323.138 156.928 323.138ZM156.938 321.8C157.313 321.8 157.627 321.697 157.879 321.49C158.132 321.281 158.319 321.001 158.442 320.65C158.569 320.299 158.632 319.908 158.632 319.478C158.632 319.044 158.569 318.651 158.442 318.3C158.319 317.946 158.132 317.665 157.879 317.456C157.627 317.246 157.313 317.142 156.938 317.142C156.553 317.142 156.233 317.246 155.977 317.456C155.725 317.665 155.536 317.946 155.409 318.3C155.286 318.651 155.225 319.044 155.225 319.478C155.225 319.908 155.286 320.299 155.409 320.65C155.536 321.001 155.725 321.281 155.977 321.49C156.233 321.697 156.553 321.8 156.938 321.8ZM171.303 315.909L168.778 323H166.931L164.406 315.909H166.188L167.817 321.176H167.891L169.525 315.909H171.303ZM175.357 323.138C174.646 323.138 174.032 322.991 173.515 322.695C173.001 322.397 172.606 321.975 172.329 321.43C172.052 320.883 171.913 320.238 171.913 319.496C171.913 318.767 172.052 318.127 172.329 317.576C172.609 317.022 173 316.591 173.501 316.283C174.003 315.972 174.592 315.817 175.27 315.817C175.707 315.817 176.119 315.888 176.507 316.029C176.898 316.168 177.242 316.383 177.541 316.675C177.842 316.968 178.079 317.34 178.252 317.793C178.424 318.242 178.51 318.777 178.51 319.399V319.912H172.698V318.785H176.908C176.905 318.465 176.836 318.18 176.701 317.931C176.565 317.679 176.376 317.48 176.133 317.336C175.893 317.191 175.613 317.119 175.293 317.119C174.951 317.119 174.651 317.202 174.392 317.368C174.134 317.531 173.932 317.746 173.788 318.014C173.646 318.279 173.574 318.57 173.571 318.887V319.87C173.571 320.282 173.646 320.636 173.797 320.932C173.948 321.224 174.158 321.449 174.429 321.606C174.7 321.76 175.017 321.837 175.38 321.837C175.623 321.837 175.844 321.803 176.04 321.735C176.237 321.664 176.408 321.561 176.553 321.426C176.698 321.29 176.807 321.123 176.881 320.923L178.441 321.098C178.343 321.51 178.155 321.871 177.878 322.178C177.604 322.483 177.253 322.72 176.825 322.889C176.397 323.055 175.908 323.138 175.357 323.138ZM179.924 323V315.909H181.544V317.091H181.618C181.748 316.682 181.969 316.366 182.283 316.145C182.6 315.92 182.962 315.808 183.368 315.808C183.46 315.808 183.563 315.812 183.677 315.821C183.794 315.828 183.891 315.838 183.968 315.854V317.391C183.897 317.366 183.785 317.345 183.631 317.326C183.48 317.305 183.334 317.294 183.193 317.294C182.888 317.294 182.614 317.36 182.371 317.493C182.131 317.622 181.941 317.802 181.803 318.033C181.665 318.263 181.595 318.53 181.595 318.831V323H179.924ZM185.078 323V315.909H186.75V323H185.078ZM185.919 314.903C185.654 314.903 185.426 314.815 185.235 314.64C185.045 314.461 184.949 314.247 184.949 313.998C184.949 313.746 185.045 313.532 185.235 313.356C185.426 313.178 185.654 313.088 185.919 313.088C186.186 313.088 186.414 313.178 186.602 313.356C186.793 313.532 186.888 313.746 186.888 313.998C186.888 314.247 186.793 314.461 186.602 314.64C186.414 314.815 186.186 314.903 185.919 314.903ZM192.06 315.909V317.202H187.868V315.909H192.06ZM188.916 323V315.24C188.916 314.763 189.014 314.366 189.211 314.049C189.411 313.732 189.679 313.495 190.015 313.338C190.35 313.181 190.722 313.102 191.132 313.102C191.421 313.102 191.678 313.125 191.903 313.172C192.127 313.218 192.294 313.259 192.401 313.296L192.069 314.589C191.998 314.567 191.909 314.546 191.801 314.524C191.693 314.5 191.573 314.487 191.441 314.487C191.13 314.487 190.91 314.563 190.781 314.713C190.655 314.861 190.592 315.074 190.592 315.35V323H188.916ZM194.407 325.659C194.179 325.659 193.969 325.641 193.775 325.604C193.584 325.57 193.432 325.53 193.318 325.484L193.705 324.182C193.949 324.253 194.166 324.286 194.356 324.283C194.547 324.28 194.715 324.22 194.86 324.103C195.007 323.989 195.132 323.799 195.233 323.531L195.377 323.148L192.805 315.909H194.578L196.212 321.264H196.286L197.925 315.909H199.702L196.863 323.859C196.731 324.234 196.555 324.556 196.337 324.824C196.118 325.094 195.851 325.301 195.534 325.442C195.22 325.587 194.844 325.659 194.407 325.659Z" fill="white" fill-opacity="0.5"/>
<path d="M115.633 63V53.5455H117.345V57.5479H121.726V53.5455H123.444V63H121.726V58.9837H117.345V63H115.633ZM127.273 63.1431C126.824 63.1431 126.419 63.0631 126.059 62.9031C125.702 62.7399 125.419 62.4999 125.21 62.1829C125.003 61.8659 124.9 61.475 124.9 61.0103C124.9 60.6102 124.974 60.2794 125.122 60.0178C125.27 59.7562 125.471 59.5469 125.727 59.3899C125.982 59.233 126.27 59.1145 126.59 59.0344C126.913 58.9513 127.247 58.8913 127.592 58.8544C128.007 58.8113 128.344 58.7728 128.603 58.739C128.861 58.7021 129.049 58.6467 129.166 58.5728C129.286 58.4959 129.346 58.3774 129.346 58.2173V58.1896C129.346 57.8419 129.243 57.5726 129.037 57.3817C128.83 57.1909 128.533 57.0955 128.146 57.0955C127.736 57.0955 127.412 57.1848 127.172 57.3633C126.935 57.5418 126.775 57.7526 126.691 57.9957L125.131 57.7741C125.254 57.3433 125.457 56.9832 125.741 56.6939C126.024 56.4015 126.37 56.183 126.779 56.0384C127.189 55.8906 127.641 55.8168 128.136 55.8168C128.478 55.8168 128.818 55.8568 129.157 55.9368C129.495 56.0168 129.805 56.1491 130.085 56.3338C130.365 56.5154 130.589 56.7631 130.759 57.0771C130.931 57.391 131.017 57.7834 131.017 58.2543V63H129.411V62.0259H129.355C129.254 62.2229 129.111 62.4076 128.926 62.5799C128.744 62.7492 128.515 62.8861 128.238 62.9908C127.964 63.0923 127.642 63.1431 127.273 63.1431ZM127.707 61.9151C128.043 61.9151 128.333 61.849 128.58 61.7166C128.826 61.5812 129.015 61.4027 129.147 61.1811C129.283 60.9595 129.351 60.7179 129.351 60.4563V59.6207C129.298 59.6638 129.209 59.7038 129.083 59.7408C128.96 59.7777 128.821 59.81 128.667 59.8377C128.513 59.8654 128.361 59.89 128.21 59.9116C128.06 59.9331 127.929 59.9516 127.818 59.967C127.569 60.0008 127.345 60.0562 127.149 60.1332C126.952 60.2101 126.796 60.3178 126.682 60.4563C126.568 60.5917 126.511 60.7672 126.511 60.9826C126.511 61.2904 126.624 61.5227 126.848 61.6797C127.073 61.8366 127.359 61.9151 127.707 61.9151ZM132.698 63V55.9091H134.318V57.0909H134.392C134.521 56.6816 134.743 56.3661 135.057 56.1445C135.374 55.9199 135.735 55.8075 136.141 55.8075C136.234 55.8075 136.337 55.8121 136.451 55.8214C136.568 55.8275 136.665 55.8383 136.742 55.8537V57.391C136.671 57.3664 136.558 57.3448 136.405 57.3263C136.254 57.3048 136.108 57.294 135.966 57.294C135.661 57.294 135.387 57.3602 135.144 57.4925C134.904 57.6218 134.715 57.8018 134.576 58.0327C134.438 58.2635 134.369 58.5297 134.369 58.8313V63H132.698ZM140.191 63.1246C139.634 63.1246 139.136 62.9815 138.695 62.6953C138.255 62.4091 137.908 61.9936 137.652 61.4489C137.397 60.9041 137.269 60.2424 137.269 59.4638C137.269 58.6759 137.398 58.0111 137.657 57.4695C137.918 56.9247 138.271 56.5138 138.714 56.2369C139.157 55.9568 139.651 55.8168 140.196 55.8168C140.611 55.8168 140.953 55.8875 141.221 56.0291C141.488 56.1676 141.701 56.3353 141.858 56.5323C142.015 56.7262 142.136 56.9093 142.222 57.0817H142.292V53.5455H143.968V63H142.324V61.8828H142.222C142.136 62.0552 142.012 62.2383 141.849 62.4322C141.685 62.623 141.47 62.7861 141.202 62.9215C140.934 63.0569 140.597 63.1246 140.191 63.1246ZM140.657 61.7536C141.011 61.7536 141.313 61.6581 141.562 61.4673C141.812 61.2734 142.001 61.0041 142.13 60.6594C142.259 60.3147 142.324 59.9131 142.324 59.4545C142.324 58.996 142.259 58.5974 142.13 58.2589C142.004 57.9203 141.816 57.6572 141.567 57.4695C141.321 57.2817 141.018 57.1879 140.657 57.1879C140.285 57.1879 139.974 57.2848 139.725 57.4787C139.476 57.6726 139.288 57.9403 139.162 58.282C139.036 58.6236 138.972 59.0144 138.972 59.4545C138.972 59.8977 139.036 60.2932 139.162 60.641C139.291 60.9857 139.48 61.258 139.73 61.4581C139.982 61.6551 140.291 61.7536 140.657 61.7536ZM152.514 55.9091V57.2017H148.437V55.9091H152.514ZM149.444 54.2102H151.115V60.8672C151.115 61.0919 151.149 61.2642 151.217 61.3842C151.287 61.5012 151.38 61.5812 151.494 61.6243C151.607 61.6674 151.734 61.6889 151.872 61.6889C151.977 61.6889 152.072 61.6812 152.158 61.6658C152.248 61.6504 152.315 61.6366 152.361 61.6243L152.643 62.9308C152.554 62.9615 152.426 62.9954 152.26 63.0323C152.097 63.0692 151.897 63.0908 151.66 63.0969C151.241 63.1093 150.864 63.0462 150.529 62.9077C150.193 62.7661 149.927 62.5476 149.73 62.2521C149.536 61.9567 149.441 61.5874 149.444 61.1442V54.2102ZM156.928 63.1385C156.236 63.1385 155.636 62.9862 155.128 62.6815C154.62 62.3768 154.226 61.9505 153.946 61.4027C153.669 60.8549 153.531 60.2147 153.531 59.4822C153.531 58.7498 153.669 58.1081 153.946 57.5572C154.226 57.0063 154.62 56.5785 155.128 56.2738C155.636 55.9691 156.236 55.8168 156.928 55.8168C157.621 55.8168 158.221 55.9691 158.729 56.2738C159.237 56.5785 159.629 57.0063 159.906 57.5572C160.186 58.1081 160.326 58.7498 160.326 59.4822C160.326 60.2147 160.186 60.8549 159.906 61.4027C159.629 61.9505 159.237 62.3768 158.729 62.6815C158.221 62.9862 157.621 63.1385 156.928 63.1385ZM156.938 61.7997C157.313 61.7997 157.627 61.6966 157.879 61.4904C158.132 61.2811 158.319 61.0011 158.442 60.6502C158.569 60.2994 158.632 59.9085 158.632 59.4776C158.632 59.0437 158.569 58.6513 158.442 58.3004C158.319 57.9465 158.132 57.6649 157.879 57.4556C157.627 57.2463 157.313 57.1417 156.938 57.1417C156.553 57.1417 156.233 57.2463 155.977 57.4556C155.725 57.6649 155.536 57.9465 155.409 58.3004C155.286 58.6513 155.225 59.0437 155.225 59.4776C155.225 59.9085 155.286 60.2994 155.409 60.6502C155.536 61.0011 155.725 61.2811 155.977 61.4904C156.233 61.6966 156.553 61.7997 156.938 61.7997ZM171.303 55.9091L168.778 63H166.931L164.406 55.9091H166.188L167.817 61.1765H167.891L169.525 55.9091H171.303ZM175.357 63.1385C174.646 63.1385 174.032 62.9908 173.515 62.6953C173.001 62.3968 172.606 61.9751 172.329 61.4304C172.052 60.8826 171.913 60.2378 171.913 59.4961C171.913 58.7667 172.052 58.1265 172.329 57.5756C172.609 57.0217 173 56.5908 173.501 56.283C174.003 55.9722 174.592 55.8168 175.27 55.8168C175.707 55.8168 176.119 55.8875 176.507 56.0291C176.898 56.1676 177.242 56.383 177.541 56.6754C177.842 56.9678 178.079 57.3402 178.252 57.7926C178.424 58.242 178.51 58.7775 178.51 59.3991V59.9116H172.698V58.7852H176.908C176.905 58.4651 176.836 58.1804 176.701 57.9311C176.565 57.6787 176.376 57.4802 176.133 57.3356C175.893 57.1909 175.613 57.1186 175.293 57.1186C174.951 57.1186 174.651 57.2017 174.392 57.3679C174.134 57.531 173.932 57.7464 173.788 58.0142C173.646 58.2789 173.574 58.5697 173.571 58.8867V59.87C173.571 60.2824 173.646 60.6364 173.797 60.9318C173.948 61.2242 174.158 61.4489 174.429 61.6058C174.7 61.7597 175.017 61.8366 175.38 61.8366C175.623 61.8366 175.844 61.8028 176.04 61.7351C176.237 61.6643 176.408 61.5612 176.553 61.4258C176.698 61.2904 176.807 61.1226 176.881 60.9226L178.441 61.098C178.343 61.5104 178.155 61.8705 177.878 62.1783C177.604 62.483 177.253 62.7199 176.825 62.8892C176.397 63.0554 175.908 63.1385 175.357 63.1385ZM179.924 63V55.9091H181.544V57.0909H181.618C181.748 56.6816 181.969 56.3661 182.283 56.1445C182.6 55.9199 182.962 55.8075 183.368 55.8075C183.46 55.8075 183.563 55.8121 183.677 55.8214C183.794 55.8275 183.891 55.8383 183.968 55.8537V57.391C183.897 57.3664 183.785 57.3448 183.631 57.3263C183.48 57.3048 183.334 57.294 183.193 57.294C182.888 57.294 182.614 57.3602 182.371 57.4925C182.131 57.6218 181.941 57.8018 181.803 58.0327C181.665 58.2635 181.595 58.5297 181.595 58.8313V63H179.924ZM185.078 63V55.9091H186.75V63H185.078ZM185.919 54.9027C185.654 54.9027 185.426 54.815 185.235 54.6396C185.045 54.4611 184.949 54.2472 184.949 53.9979C184.949 53.7455 185.045 53.5316 185.235 53.3562C185.426 53.1777 185.654 53.0884 185.919 53.0884C186.186 53.0884 186.414 53.1777 186.602 53.3562C186.793 53.5316 186.888 53.7455 186.888 53.9979C186.888 54.2472 186.793 54.4611 186.602 54.6396C186.414 54.815 186.186 54.9027 185.919 54.9027ZM192.06 55.9091V57.2017H187.868V55.9091H192.06ZM188.916 63V55.2397C188.916 54.7627 189.014 54.3656 189.211 54.0487C189.411 53.7317 189.679 53.4947 190.015 53.3377C190.35 53.1808 190.722 53.1023 191.132 53.1023C191.421 53.1023 191.678 53.1254 191.903 53.1715C192.127 53.2177 192.294 53.2592 192.401 53.2962L192.069 54.5888C191.998 54.5672 191.909 54.5457 191.801 54.5241C191.693 54.4995 191.573 54.4872 191.441 54.4872C191.13 54.4872 190.91 54.5626 190.781 54.7134C190.655 54.8612 190.592 55.0735 190.592 55.3505V63H188.916ZM194.407 65.6591C194.179 65.6591 193.969 65.6406 193.775 65.6037C193.584 65.5698 193.432 65.5298 193.318 65.4837L193.705 64.1818C193.949 64.2526 194.166 64.2865 194.356 64.2834C194.547 64.2803 194.715 64.2203 194.86 64.1033C195.007 63.9895 195.132 63.7987 195.233 63.5309L195.377 63.1477L192.805 55.9091H194.578L196.212 61.2642H196.286L197.925 55.9091H199.702L196.863 63.8587C196.731 64.2341 196.555 64.5558 196.337 64.8235C196.118 65.0943 195.851 65.3005 195.534 65.4421C195.22 65.5868 194.844 65.6591 194.407 65.6591Z" fill="white" fill-opacity="0.5"/>
<path d="M151.416 181.909L154.823 192.213H154.957L158.357 181.909H160.965L156.35 195H153.423L148.814 181.909H151.416ZM165.879 195.192C164.895 195.192 164.045 194.987 163.329 194.578C162.617 194.165 162.07 193.581 161.686 192.827C161.303 192.068 161.111 191.175 161.111 190.148C161.111 189.138 161.303 188.252 161.686 187.489C162.074 186.722 162.615 186.126 163.31 185.7C164.004 185.269 164.82 185.054 165.758 185.054C166.363 185.054 166.934 185.152 167.471 185.348C168.012 185.54 168.489 185.838 168.903 186.243C169.32 186.648 169.648 187.163 169.887 187.79C170.126 188.412 170.245 189.153 170.245 190.014V190.724H162.197V189.164H168.027C168.023 188.721 167.927 188.327 167.739 187.982C167.552 187.632 167.29 187.357 166.953 187.157C166.621 186.957 166.233 186.857 165.79 186.857C165.317 186.857 164.901 186.972 164.543 187.202C164.185 187.428 163.906 187.726 163.706 188.097C163.51 188.463 163.41 188.866 163.406 189.305V190.666C163.406 191.237 163.51 191.727 163.719 192.136C163.928 192.541 164.219 192.852 164.594 193.07C164.969 193.283 165.408 193.389 165.911 193.389C166.248 193.389 166.553 193.342 166.825 193.249C167.098 193.151 167.335 193.008 167.535 192.82C167.735 192.633 167.886 192.401 167.989 192.124L170.149 192.366C170.013 192.937 169.753 193.436 169.369 193.862C168.99 194.284 168.504 194.612 167.912 194.847C167.32 195.077 166.642 195.192 165.879 195.192ZM172.203 195V185.182H174.446V186.818H174.548C174.727 186.251 175.034 185.815 175.469 185.508C175.908 185.197 176.409 185.041 176.971 185.041C177.099 185.041 177.242 185.048 177.399 185.06C177.561 185.069 177.695 185.084 177.802 185.105V187.234C177.704 187.2 177.548 187.17 177.335 187.144C177.127 187.114 176.924 187.099 176.728 187.099C176.306 187.099 175.927 187.191 175.59 187.374C175.258 187.553 174.996 187.803 174.804 188.122C174.612 188.442 174.517 188.81 174.517 189.228V195H172.203ZM179.339 195V185.182H181.653V195H179.339ZM180.503 183.788C180.136 183.788 179.821 183.667 179.557 183.424C179.292 183.177 179.16 182.881 179.16 182.536C179.16 182.186 179.292 181.89 179.557 181.647C179.821 181.4 180.136 181.276 180.503 181.276C180.873 181.276 181.189 181.4 181.449 181.647C181.713 181.89 181.845 182.186 181.845 182.536C181.845 182.881 181.713 183.177 181.449 183.424C181.189 183.667 180.873 183.788 180.503 183.788ZM189.006 185.182V186.972H183.202V185.182H189.006ZM184.653 195V184.255C184.653 183.594 184.789 183.045 185.062 182.606C185.339 182.167 185.71 181.839 186.174 181.621C186.638 181.404 187.154 181.295 187.721 181.295C188.121 181.295 188.477 181.327 188.788 181.391C189.099 181.455 189.33 181.513 189.479 181.564L189.018 183.354C188.92 183.324 188.797 183.294 188.648 183.264C188.499 183.23 188.332 183.213 188.149 183.213C187.719 183.213 187.414 183.317 187.235 183.526C187.06 183.731 186.973 184.025 186.973 184.408V195H184.653ZM192.256 198.682C191.941 198.682 191.649 198.656 191.38 198.605C191.116 198.558 190.905 198.503 190.748 198.439L191.284 196.636C191.621 196.734 191.922 196.781 192.186 196.777C192.45 196.773 192.682 196.69 192.882 196.528C193.087 196.37 193.26 196.106 193.4 195.735L193.598 195.205L190.038 185.182H192.493L194.755 192.597H194.858L197.127 185.182H199.588L195.657 196.189C195.473 196.709 195.23 197.154 194.928 197.525C194.625 197.9 194.255 198.185 193.816 198.381C193.381 198.582 192.861 198.682 192.256 198.682Z" fill="white"/>
<path d="M378.2 351.326H375.809C375.741 350.934 375.615 350.587 375.432 350.284C375.249 349.977 375.021 349.717 374.748 349.504C374.475 349.291 374.164 349.131 373.815 349.025C373.469 348.914 373.097 348.859 372.696 348.859C371.984 348.859 371.354 349.038 370.804 349.396C370.254 349.749 369.824 350.269 369.513 350.955C369.202 351.637 369.046 352.47 369.046 353.455C369.046 354.456 369.202 355.3 369.513 355.986C369.828 356.668 370.259 357.183 370.804 357.533C371.354 357.878 371.982 358.05 372.69 358.05C373.082 358.05 373.448 357.999 373.789 357.897C374.134 357.79 374.443 357.635 374.716 357.43C374.993 357.226 375.225 356.974 375.413 356.676C375.604 356.378 375.737 356.037 375.809 355.653L378.2 355.666C378.11 356.288 377.916 356.872 377.618 357.418C377.324 357.963 376.938 358.445 376.461 358.862C375.984 359.276 375.425 359.599 374.786 359.834C374.147 360.064 373.438 360.179 372.658 360.179C371.507 360.179 370.48 359.913 369.577 359.38C368.673 358.847 367.962 358.078 367.442 357.072C366.922 356.067 366.662 354.861 366.662 353.455C366.662 352.044 366.924 350.838 367.448 349.837C367.972 348.831 368.686 348.062 369.589 347.529C370.493 346.996 371.516 346.73 372.658 346.73C373.386 346.73 374.064 346.832 374.69 347.037C375.317 347.241 375.875 347.542 376.365 347.938C376.855 348.33 377.258 348.812 377.573 349.383C377.893 349.95 378.102 350.597 378.2 351.326ZM380.269 360V350.182H382.513V351.818H382.615C382.794 351.251 383.101 350.815 383.535 350.508C383.974 350.197 384.475 350.041 385.037 350.041C385.165 350.041 385.308 350.048 385.466 350.06C385.628 350.069 385.762 350.084 385.868 350.105V352.234C385.77 352.2 385.615 352.17 385.402 352.144C385.193 352.114 384.991 352.099 384.795 352.099C384.373 352.099 383.993 352.191 383.657 352.374C383.324 352.553 383.062 352.803 382.871 353.122C382.679 353.442 382.583 353.81 382.583 354.228V360H380.269ZM390.055 360.198C389.433 360.198 388.873 360.087 388.374 359.866C387.88 359.64 387.488 359.308 387.198 358.869C386.912 358.43 386.77 357.888 386.77 357.245C386.77 356.691 386.872 356.233 387.077 355.871C387.281 355.509 387.56 355.219 387.914 355.001C388.268 354.784 388.666 354.62 389.109 354.509C389.557 354.394 390.019 354.311 390.496 354.26C391.072 354.2 391.538 354.147 391.896 354.1C392.254 354.049 392.514 353.972 392.676 353.87C392.842 353.763 392.925 353.599 392.925 353.378V353.339C392.925 352.858 392.782 352.485 392.497 352.221C392.211 351.957 391.8 351.825 391.263 351.825C390.697 351.825 390.247 351.948 389.915 352.195C389.586 352.442 389.365 352.734 389.25 353.071L387.089 352.764C387.26 352.168 387.541 351.669 387.933 351.268C388.325 350.864 388.805 350.561 389.371 350.361C389.938 350.156 390.564 350.054 391.251 350.054C391.724 350.054 392.194 350.109 392.663 350.22C393.132 350.331 393.56 350.514 393.948 350.77C394.336 351.021 394.647 351.364 394.881 351.799C395.12 352.234 395.239 352.777 395.239 353.429V360H393.015V358.651H392.938C392.797 358.924 392.599 359.18 392.344 359.418C392.092 359.653 391.775 359.842 391.391 359.987C391.012 360.128 390.567 360.198 390.055 360.198ZM390.656 358.498C391.121 358.498 391.523 358.406 391.864 358.223C392.205 358.036 392.467 357.788 392.65 357.482C392.838 357.175 392.932 356.84 392.932 356.478V355.321C392.859 355.381 392.736 355.436 392.561 355.487C392.39 355.538 392.199 355.583 391.986 355.621C391.773 355.66 391.562 355.694 391.353 355.724C391.144 355.754 390.963 355.779 390.809 355.8C390.464 355.847 390.155 355.924 389.883 356.031C389.61 356.137 389.395 356.286 389.237 356.478C389.079 356.665 389.001 356.908 389.001 357.207C389.001 357.633 389.156 357.955 389.467 358.172C389.778 358.389 390.175 358.498 390.656 358.498ZM402.539 350.182V351.972H396.735V350.182H402.539ZM398.186 360V349.255C398.186 348.594 398.322 348.045 398.595 347.606C398.872 347.167 399.243 346.839 399.707 346.621C400.172 346.404 400.687 346.295 401.254 346.295C401.655 346.295 402.01 346.327 402.322 346.391C402.633 346.455 402.863 346.513 403.012 346.564L402.552 348.354C402.454 348.324 402.33 348.294 402.181 348.264C402.032 348.23 401.866 348.213 401.682 348.213C401.252 348.213 400.947 348.317 400.768 348.526C400.594 348.731 400.506 349.025 400.506 349.408V360H398.186ZM409.254 350.182V351.972H403.61V350.182H409.254ZM405.003 347.83H407.317V357.047C407.317 357.358 407.364 357.597 407.458 357.763C407.556 357.925 407.683 358.036 407.841 358.095C407.999 358.155 408.173 358.185 408.365 358.185C408.51 358.185 408.642 358.174 408.762 358.153C408.885 358.131 408.979 358.112 409.043 358.095L409.433 359.904C409.309 359.947 409.132 359.994 408.902 360.045C408.676 360.096 408.399 360.126 408.071 360.134C407.492 360.151 406.97 360.064 406.505 359.872C406.041 359.676 405.672 359.374 405.399 358.964C405.131 358.555 404.999 358.044 405.003 357.43V347.83Z" fill="white"/>
<circle cx="240" cy="309" r="9" fill="#5EB44C"/>
<path d="M351.539 91.5455V101H349.827V91.5455H351.539ZM354.991 96.8452V101H353.32V93.9091H354.917V95.114H355C355.164 94.717 355.424 94.4015 355.781 94.1676C356.141 93.9337 356.585 93.8168 357.115 93.8168C357.604 93.8168 358.03 93.9214 358.394 94.1307C358.76 94.34 359.043 94.6431 359.243 95.0401C359.446 95.4371 359.546 95.9188 359.543 96.4851V101H357.872V96.7436C357.872 96.2696 357.749 95.8988 357.503 95.631C357.259 95.3633 356.922 95.2294 356.492 95.2294C356.199 95.2294 355.939 95.294 355.711 95.4233C355.487 95.5495 355.31 95.7326 355.181 95.9727C355.054 96.2127 354.991 96.5036 354.991 96.8452ZM364.783 93.9091V95.2017H360.706V93.9091H364.783ZM361.713 92.2102H363.384V98.8672C363.384 99.0919 363.418 99.2642 363.486 99.3842C363.556 99.5012 363.649 99.5812 363.763 99.6243C363.876 99.6674 364.003 99.6889 364.141 99.6889C364.246 99.6889 364.341 99.6812 364.427 99.6658C364.517 99.6504 364.584 99.6366 364.63 99.6243L364.912 100.931C364.823 100.962 364.695 100.995 364.529 101.032C364.366 101.069 364.166 101.091 363.929 101.097C363.51 101.109 363.133 101.046 362.798 100.908C362.462 100.766 362.196 100.548 361.999 100.252C361.805 99.9567 361.71 99.5874 361.713 99.1442V92.2102ZM369.243 101.138C368.533 101.138 367.919 100.991 367.402 100.695C366.888 100.397 366.492 99.9751 366.215 99.4304C365.938 98.8826 365.8 98.2378 365.8 97.4961C365.8 96.7667 365.938 96.1265 366.215 95.5756C366.495 95.0217 366.886 94.5908 367.388 94.283C367.889 93.9722 368.479 93.8168 369.156 93.8168C369.593 93.8168 370.005 93.8875 370.393 94.0291C370.784 94.1676 371.129 94.383 371.427 94.6754C371.729 94.9678 371.966 95.3402 372.138 95.7926C372.31 96.242 372.397 96.7775 372.397 97.3991V97.9116H366.584V96.7852H370.795C370.792 96.4651 370.722 96.1804 370.587 95.9311C370.451 95.6787 370.262 95.4802 370.019 95.3356C369.779 95.1909 369.499 95.1186 369.179 95.1186C368.837 95.1186 368.537 95.2017 368.279 95.3679C368.02 95.531 367.819 95.7464 367.674 96.0142C367.532 96.2789 367.46 96.5697 367.457 96.8867V97.87C367.457 98.2824 367.532 98.6364 367.683 98.9318C367.834 99.2242 368.045 99.4489 368.316 99.6058C368.586 99.7597 368.903 99.8366 369.267 99.8366C369.51 99.8366 369.73 99.8028 369.927 99.7351C370.124 99.6643 370.294 99.5612 370.439 99.4258C370.584 99.2904 370.693 99.1226 370.767 98.9226L372.327 99.098C372.229 99.5104 372.041 99.8705 371.764 100.178C371.49 100.483 371.139 100.72 370.712 100.889C370.284 101.055 369.794 101.138 369.243 101.138ZM373.81 101V93.9091H375.431V95.0909H375.505C375.634 94.6816 375.855 94.3661 376.169 94.1445C376.486 93.9199 376.848 93.8075 377.254 93.8075C377.347 93.8075 377.45 93.8121 377.564 93.8214C377.68 93.8275 377.777 93.8383 377.854 93.8537V95.391C377.784 95.3664 377.671 95.3448 377.517 95.3263C377.367 95.3048 377.22 95.294 377.079 95.294C376.774 95.294 376.5 95.3602 376.257 95.4925C376.017 95.6218 375.828 95.8018 375.689 96.0327C375.551 96.2635 375.481 96.5297 375.481 96.8313V101H373.81ZM380.878 101.143C380.429 101.143 380.024 101.063 379.664 100.903C379.307 100.74 379.024 100.5 378.815 100.183C378.608 99.8659 378.505 99.475 378.505 99.0103C378.505 98.6102 378.579 98.2794 378.727 98.0178C378.875 97.7562 379.076 97.5469 379.332 97.3899C379.587 97.233 379.875 97.1145 380.195 97.0344C380.518 96.9513 380.852 96.8913 381.197 96.8544C381.612 96.8113 381.949 96.7728 382.208 96.739C382.466 96.7021 382.654 96.6467 382.771 96.5728C382.891 96.4959 382.951 96.3774 382.951 96.2173V96.1896C382.951 95.8419 382.848 95.5726 382.642 95.3817C382.435 95.1909 382.138 95.0955 381.751 95.0955C381.341 95.0955 381.017 95.1848 380.777 95.3633C380.54 95.5418 380.38 95.7526 380.296 95.9957L378.736 95.7741C378.859 95.3433 379.062 94.9832 379.345 94.6939C379.629 94.4015 379.975 94.183 380.384 94.0384C380.794 93.8906 381.246 93.8168 381.741 93.8168C382.083 93.8168 382.423 93.8568 382.762 93.9368C383.1 94.0168 383.41 94.1491 383.69 94.3338C383.97 94.5154 384.194 94.7631 384.364 95.0771C384.536 95.391 384.622 95.7834 384.622 96.2543V101H383.016V100.026H382.96C382.859 100.223 382.716 100.408 382.531 100.58C382.349 100.749 382.12 100.886 381.843 100.991C381.569 101.092 381.247 101.143 380.878 101.143ZM381.312 99.9151C381.648 99.9151 381.938 99.849 382.185 99.7166C382.431 99.5812 382.62 99.4027 382.752 99.1811C382.888 98.9595 382.956 98.7179 382.956 98.4563V97.6207C382.903 97.6638 382.814 97.7038 382.688 97.7408C382.565 97.7777 382.426 97.81 382.272 97.8377C382.118 97.8654 381.966 97.89 381.815 97.9116C381.664 97.9331 381.534 97.9516 381.423 97.967C381.174 98.0008 380.95 98.0562 380.754 98.1332C380.557 98.2101 380.401 98.3178 380.287 98.4563C380.173 98.5917 380.116 98.7672 380.116 98.9826C380.116 99.2904 380.229 99.5227 380.453 99.6797C380.678 99.8366 380.964 99.9151 381.312 99.9151ZM389.396 101.138C388.688 101.138 388.08 100.983 387.572 100.672C387.067 100.361 386.678 99.9321 386.404 99.3842C386.133 98.8333 385.998 98.1993 385.998 97.4822C385.998 96.7621 386.136 96.1265 386.413 95.5756C386.69 95.0217 387.081 94.5908 387.586 94.283C388.094 93.9722 388.694 93.8168 389.386 93.8168C389.962 93.8168 390.471 93.9229 390.914 94.1353C391.361 94.3446 391.716 94.6416 391.981 95.0263C392.245 95.4079 392.396 95.8542 392.433 96.3651H390.836C390.771 96.0234 390.617 95.7388 390.374 95.511C390.134 95.2802 389.813 95.1648 389.409 95.1648C389.068 95.1648 388.768 95.2571 388.509 95.4418C388.251 95.6233 388.049 95.8849 387.904 96.2266C387.763 96.5682 387.692 96.9775 387.692 97.4545C387.692 97.9377 387.763 98.3532 387.904 98.701C388.046 99.0457 388.245 99.3119 388.5 99.4996C388.758 99.6843 389.062 99.7766 389.409 99.7766C389.656 99.7766 389.876 99.7305 390.07 99.6381C390.267 99.5427 390.431 99.4058 390.564 99.2273C390.696 99.0488 390.787 98.8318 390.836 98.5763H392.433C392.393 99.078 392.245 99.5227 391.99 99.9105C391.735 100.295 391.387 100.597 390.947 100.815C390.507 101.031 389.99 101.138 389.396 101.138ZM397.346 93.9091V95.2017H393.27V93.9091H397.346ZM394.276 92.2102H395.947V98.8672C395.947 99.0919 395.981 99.2642 396.049 99.3842C396.12 99.5012 396.212 99.5812 396.326 99.6243C396.44 99.6674 396.566 99.6889 396.705 99.6889C396.809 99.6889 396.905 99.6812 396.991 99.6658C397.08 99.6504 397.148 99.6366 397.194 99.6243L397.476 100.931C397.386 100.962 397.259 100.995 397.092 101.032C396.929 101.069 396.729 101.091 396.492 101.097C396.074 101.109 395.697 101.046 395.361 100.908C395.026 100.766 394.76 100.548 394.563 100.252C394.369 99.9567 394.273 99.5874 394.276 99.1442V92.2102ZM398.744 101V93.9091H400.415V101H398.744ZM399.584 92.9027C399.319 92.9027 399.092 92.815 398.901 92.6396C398.71 92.4611 398.615 92.2472 398.615 91.9979C398.615 91.7455 398.71 91.5316 398.901 91.3562C399.092 91.1777 399.319 91.0884 399.584 91.0884C399.852 91.0884 400.08 91.1777 400.267 91.3562C400.458 91.5316 400.554 91.7455 400.554 91.9979C400.554 92.2472 400.458 92.4611 400.267 92.6396C400.08 92.815 399.852 92.9027 399.584 92.9027ZM405.227 101.138C404.534 101.138 403.934 100.986 403.426 100.681C402.918 100.377 402.524 99.9505 402.244 99.4027C401.967 98.8549 401.829 98.2147 401.829 97.4822C401.829 96.7498 401.967 96.1081 402.244 95.5572C402.524 95.0063 402.918 94.5785 403.426 94.2738C403.934 93.9691 404.534 93.8168 405.227 93.8168C405.919 93.8168 406.519 93.9691 407.027 94.2738C407.535 94.5785 407.927 95.0063 408.204 95.5572C408.484 96.1081 408.624 96.7498 408.624 97.4822C408.624 98.2147 408.484 98.8549 408.204 99.4027C407.927 99.9505 407.535 100.377 407.027 100.681C406.519 100.986 405.919 101.138 405.227 101.138ZM405.236 99.7997C405.611 99.7997 405.925 99.6966 406.178 99.4904C406.43 99.2811 406.618 99.0011 406.741 98.6502C406.867 98.2994 406.93 97.9085 406.93 97.4776C406.93 97.0437 406.867 96.6513 406.741 96.3004C406.618 95.9465 406.43 95.6649 406.178 95.4556C405.925 95.2463 405.611 95.1417 405.236 95.1417C404.851 95.1417 404.531 95.2463 404.276 95.4556C404.023 95.6649 403.834 95.9465 403.708 96.3004C403.585 96.6513 403.523 97.0437 403.523 97.4776C403.523 97.9085 403.585 98.2994 403.708 98.6502C403.834 99.0011 404.023 99.2811 404.276 99.4904C404.531 99.6966 404.851 99.7997 405.236 99.7997ZM411.714 96.8452V101H410.043V93.9091H411.64V95.114H411.723C411.886 94.717 412.146 94.4015 412.503 94.1676C412.863 93.9337 413.308 93.8168 413.837 93.8168C414.327 93.8168 414.753 93.9214 415.116 94.1307C415.482 94.34 415.766 94.6431 415.966 95.0401C416.169 95.4371 416.269 95.9188 416.266 96.4851V101H414.595V96.7436C414.595 96.2696 414.471 95.8988 414.225 95.631C413.982 95.3633 413.645 95.2294 413.214 95.2294C412.922 95.2294 412.662 95.294 412.434 95.4233C412.209 95.5495 412.032 95.7326 411.903 95.9727C411.777 96.2127 411.714 96.5036 411.714 96.8452ZM357.205 119.659V109.909H358.848V111.082H358.945C359.031 110.909 359.153 110.726 359.31 110.532C359.467 110.335 359.679 110.168 359.947 110.029C360.215 109.888 360.556 109.817 360.972 109.817C361.52 109.817 362.014 109.957 362.454 110.237C362.897 110.514 363.248 110.925 363.506 111.469C363.768 112.011 363.899 112.676 363.899 113.464C363.899 114.242 363.771 114.904 363.516 115.449C363.26 115.994 362.912 116.409 362.472 116.695C362.032 116.982 361.534 117.125 360.977 117.125C360.57 117.125 360.233 117.057 359.966 116.922C359.698 116.786 359.482 116.623 359.319 116.432C359.159 116.238 359.035 116.055 358.945 115.883H358.876V119.659H357.205ZM358.844 113.455C358.844 113.913 358.908 114.315 359.038 114.659C359.17 115.004 359.359 115.273 359.605 115.467C359.855 115.658 360.156 115.754 360.51 115.754C360.88 115.754 361.189 115.655 361.438 115.458C361.687 115.258 361.875 114.986 362.001 114.641C362.131 114.293 362.195 113.898 362.195 113.455C362.195 113.014 362.132 112.624 362.006 112.282C361.88 111.94 361.692 111.673 361.443 111.479C361.193 111.285 360.883 111.188 360.51 111.188C360.153 111.188 359.85 111.282 359.601 111.469C359.352 111.657 359.162 111.92 359.033 112.259C358.907 112.597 358.844 112.996 358.844 113.455ZM367.37 117.143C366.921 117.143 366.516 117.063 366.156 116.903C365.799 116.74 365.516 116.5 365.307 116.183C365.101 115.866 364.997 115.475 364.997 115.01C364.997 114.61 365.071 114.279 365.219 114.018C365.367 113.756 365.568 113.547 365.824 113.39C366.079 113.233 366.367 113.114 366.687 113.034C367.01 112.951 367.344 112.891 367.689 112.854C368.104 112.811 368.441 112.773 368.7 112.739C368.958 112.702 369.146 112.647 369.263 112.573C369.383 112.496 369.443 112.377 369.443 112.217V112.19C369.443 111.842 369.34 111.573 369.134 111.382C368.928 111.191 368.631 111.096 368.243 111.096C367.834 111.096 367.509 111.185 367.269 111.363C367.032 111.542 366.872 111.753 366.789 111.996L365.228 111.774C365.351 111.343 365.555 110.983 365.838 110.694C366.121 110.402 366.467 110.183 366.876 110.038C367.286 109.891 367.738 109.817 368.234 109.817C368.575 109.817 368.915 109.857 369.254 109.937C369.592 110.017 369.902 110.149 370.182 110.334C370.462 110.515 370.687 110.763 370.856 111.077C371.028 111.391 371.114 111.783 371.114 112.254V117H369.508V116.026H369.452C369.351 116.223 369.208 116.408 369.023 116.58C368.841 116.749 368.612 116.886 368.335 116.991C368.061 117.092 367.74 117.143 367.37 117.143ZM367.804 115.915C368.14 115.915 368.431 115.849 368.677 115.717C368.923 115.581 369.112 115.403 369.245 115.181C369.38 114.96 369.448 114.718 369.448 114.456V113.621C369.395 113.664 369.306 113.704 369.18 113.741C369.057 113.778 368.918 113.81 368.765 113.838C368.611 113.865 368.458 113.89 368.307 113.912C368.157 113.933 368.026 113.952 367.915 113.967C367.666 114.001 367.443 114.056 367.246 114.133C367.049 114.21 366.893 114.318 366.779 114.456C366.666 114.592 366.609 114.767 366.609 114.983C366.609 115.29 366.721 115.523 366.946 115.68C367.17 115.837 367.457 115.915 367.804 115.915ZM376.336 109.909V111.202H372.259V109.909H376.336ZM373.266 108.21H374.937V114.867C374.937 115.092 374.971 115.264 375.038 115.384C375.109 115.501 375.201 115.581 375.315 115.624C375.429 115.667 375.555 115.689 375.694 115.689C375.798 115.689 375.894 115.681 375.98 115.666C376.069 115.65 376.137 115.637 376.183 115.624L376.465 116.931C376.376 116.962 376.248 116.995 376.082 117.032C375.919 117.069 375.718 117.091 375.481 117.097C375.063 117.109 374.686 117.046 374.35 116.908C374.015 116.766 373.749 116.548 373.552 116.252C373.358 115.957 373.263 115.587 373.266 115.144V108.21ZM381.274 109.909V111.202H377.198V109.909H381.274ZM378.204 108.21H379.875V114.867C379.875 115.092 379.909 115.264 379.977 115.384C380.048 115.501 380.14 115.581 380.254 115.624C380.368 115.667 380.494 115.689 380.632 115.689C380.737 115.689 380.832 115.681 380.919 115.666C381.008 115.65 381.076 115.637 381.122 115.624L381.403 116.931C381.314 116.962 381.186 116.995 381.02 117.032C380.857 117.069 380.657 117.091 380.42 117.097C380.001 117.109 379.624 117.046 379.289 116.908C378.953 116.766 378.687 116.548 378.49 116.252C378.296 115.957 378.201 115.587 378.204 115.144V108.21ZM385.735 117.138C385.024 117.138 384.41 116.991 383.893 116.695C383.379 116.397 382.983 115.975 382.706 115.43C382.429 114.883 382.291 114.238 382.291 113.496C382.291 112.767 382.429 112.127 382.706 111.576C382.986 111.022 383.377 110.591 383.879 110.283C384.381 109.972 384.97 109.817 385.647 109.817C386.084 109.817 386.496 109.888 386.884 110.029C387.275 110.168 387.62 110.383 387.918 110.675C388.22 110.968 388.457 111.34 388.629 111.793C388.802 112.242 388.888 112.777 388.888 113.399V113.912H383.076V112.785H387.286C387.283 112.465 387.213 112.18 387.078 111.931C386.943 111.679 386.753 111.48 386.51 111.336C386.27 111.191 385.99 111.119 385.67 111.119C385.328 111.119 385.028 111.202 384.77 111.368C384.511 111.531 384.31 111.746 384.165 112.014C384.024 112.279 383.951 112.57 383.948 112.887V113.87C383.948 114.282 384.024 114.636 384.174 114.932C384.325 115.224 384.536 115.449 384.807 115.606C385.078 115.76 385.395 115.837 385.758 115.837C386.001 115.837 386.221 115.803 386.418 115.735C386.615 115.664 386.786 115.561 386.93 115.426C387.075 115.29 387.184 115.123 387.258 114.923L388.818 115.098C388.72 115.51 388.532 115.871 388.255 116.178C387.981 116.483 387.631 116.72 387.203 116.889C386.775 117.055 386.286 117.138 385.735 117.138ZM390.302 117V109.909H391.922V111.091H391.996C392.125 110.682 392.347 110.366 392.661 110.145C392.978 109.92 393.339 109.808 393.745 109.808C393.838 109.808 393.941 109.812 394.055 109.821C394.172 109.828 394.269 109.838 394.346 109.854V111.391C394.275 111.366 394.162 111.345 394.009 111.326C393.858 111.305 393.712 111.294 393.57 111.294C393.265 111.294 392.991 111.36 392.748 111.493C392.508 111.622 392.319 111.802 392.18 112.033C392.042 112.263 391.973 112.53 391.973 112.831V117H390.302ZM397.127 112.845V117H395.456V109.909H397.053V111.114H397.136C397.299 110.717 397.559 110.402 397.916 110.168C398.277 109.934 398.721 109.817 399.251 109.817C399.74 109.817 400.166 109.921 400.529 110.131C400.896 110.34 401.179 110.643 401.379 111.04C401.582 111.437 401.682 111.919 401.679 112.485V117H400.008V112.744C400.008 112.27 399.885 111.899 399.638 111.631C399.395 111.363 399.058 111.229 398.627 111.229C398.335 111.229 398.075 111.294 397.847 111.423C397.622 111.549 397.446 111.733 397.316 111.973C397.19 112.213 397.127 112.504 397.127 112.845ZM408.982 111.783L407.459 111.95C407.416 111.796 407.34 111.651 407.232 111.516C407.128 111.38 406.986 111.271 406.808 111.188C406.629 111.105 406.411 111.063 406.152 111.063C405.804 111.063 405.512 111.139 405.275 111.289C405.041 111.44 404.926 111.636 404.929 111.876C404.926 112.082 405.001 112.25 405.155 112.379C405.312 112.508 405.571 112.614 405.931 112.697L407.14 112.956C407.811 113.101 408.31 113.33 408.636 113.644C408.965 113.958 409.131 114.369 409.134 114.876C409.131 115.323 409.001 115.717 408.742 116.058C408.487 116.397 408.131 116.661 407.676 116.852C407.22 117.043 406.697 117.138 406.106 117.138C405.238 117.138 404.54 116.957 404.01 116.594C403.481 116.228 403.165 115.718 403.064 115.066L404.693 114.909C404.767 115.229 404.924 115.47 405.164 115.634C405.404 115.797 405.717 115.878 406.101 115.878C406.498 115.878 406.817 115.797 407.057 115.634C407.3 115.47 407.422 115.269 407.422 115.029C407.422 114.826 407.343 114.658 407.186 114.526C407.032 114.393 406.792 114.292 406.466 114.221L405.257 113.967C404.576 113.825 404.073 113.587 403.747 113.251C403.421 112.913 403.259 112.485 403.262 111.968C403.259 111.531 403.378 111.152 403.618 110.832C403.861 110.509 404.198 110.26 404.629 110.085C405.063 109.906 405.563 109.817 406.129 109.817C406.96 109.817 407.614 109.994 408.091 110.348C408.571 110.702 408.868 111.18 408.982 111.783Z" fill="#F94646"/>
<circle cx="381" cy="135" r="9" fill="#F94646"/>
<path d="M371.933 315V305.545H375.552C376.235 305.545 376.803 305.653 377.255 305.869C377.711 306.081 378.051 306.372 378.276 306.741C378.503 307.11 378.617 307.529 378.617 307.997C378.617 308.382 378.543 308.711 378.396 308.985C378.248 309.256 378.049 309.476 377.8 309.645C377.551 309.814 377.272 309.936 376.964 310.01V310.102C377.3 310.12 377.622 310.223 377.929 310.411C378.24 310.596 378.494 310.857 378.691 311.196C378.888 311.535 378.987 311.944 378.987 312.424C378.987 312.913 378.868 313.353 378.631 313.744C378.394 314.132 378.037 314.438 377.56 314.663C377.083 314.888 376.483 315 375.76 315H371.933ZM373.645 313.569H375.487C376.109 313.569 376.557 313.45 376.831 313.213C377.108 312.973 377.246 312.666 377.246 312.29C377.246 312.01 377.177 311.758 377.038 311.533C376.9 311.305 376.703 311.127 376.447 310.998C376.192 310.865 375.887 310.799 375.533 310.799H373.645V313.569ZM373.645 309.566H375.339C375.635 309.566 375.901 309.513 376.138 309.405C376.375 309.294 376.561 309.139 376.697 308.939C376.835 308.735 376.904 308.495 376.904 308.218C376.904 307.852 376.775 307.551 376.517 307.314C376.261 307.077 375.881 306.958 375.376 306.958H373.645V309.566ZM382.443 315.143C381.994 315.143 381.589 315.063 381.229 314.903C380.872 314.74 380.589 314.5 380.38 314.183C380.173 313.866 380.07 313.475 380.07 313.01C380.07 312.61 380.144 312.279 380.292 312.018C380.44 311.756 380.641 311.547 380.897 311.39C381.152 311.233 381.44 311.114 381.76 311.034C382.083 310.951 382.417 310.891 382.762 310.854C383.177 310.811 383.514 310.773 383.773 310.739C384.031 310.702 384.219 310.647 384.336 310.573C384.456 310.496 384.516 310.377 384.516 310.217V310.19C384.516 309.842 384.413 309.573 384.207 309.382C384 309.191 383.703 309.096 383.316 309.096C382.906 309.096 382.582 309.185 382.342 309.363C382.105 309.542 381.945 309.753 381.861 309.996L380.301 309.774C380.424 309.343 380.627 308.983 380.91 308.694C381.194 308.402 381.54 308.183 381.949 308.038C382.358 307.891 382.811 307.817 383.306 307.817C383.648 307.817 383.988 307.857 384.327 307.937C384.665 308.017 384.974 308.149 385.255 308.334C385.535 308.515 385.759 308.763 385.929 309.077C386.101 309.391 386.187 309.783 386.187 310.254V315H384.581V314.026H384.525C384.424 314.223 384.28 314.408 384.096 314.58C383.914 314.749 383.685 314.886 383.408 314.991C383.134 315.092 382.812 315.143 382.443 315.143ZM382.877 313.915C383.213 313.915 383.503 313.849 383.75 313.717C383.996 313.581 384.185 313.403 384.317 313.181C384.453 312.96 384.521 312.718 384.521 312.456V311.621C384.468 311.664 384.379 311.704 384.253 311.741C384.13 311.778 383.991 311.81 383.837 311.838C383.683 311.865 383.531 311.89 383.38 311.912C383.229 311.933 383.099 311.952 382.988 311.967C382.739 312.001 382.515 312.056 382.318 312.133C382.121 312.21 381.966 312.318 381.852 312.456C381.738 312.592 381.681 312.767 381.681 312.983C381.681 313.29 381.794 313.523 382.018 313.68C382.243 313.837 382.529 313.915 382.877 313.915ZM390.96 315.138C390.253 315.138 389.645 314.983 389.137 314.672C388.632 314.361 388.243 313.932 387.969 313.384C387.698 312.833 387.563 312.199 387.563 311.482C387.563 310.762 387.701 310.127 387.978 309.576C388.255 309.022 388.646 308.591 389.151 308.283C389.659 307.972 390.259 307.817 390.951 307.817C391.527 307.817 392.036 307.923 392.479 308.135C392.926 308.345 393.281 308.642 393.546 309.026C393.81 309.408 393.961 309.854 393.998 310.365H392.401C392.336 310.023 392.182 309.739 391.939 309.511C391.699 309.28 391.378 309.165 390.974 309.165C390.633 309.165 390.333 309.257 390.074 309.442C389.816 309.623 389.614 309.885 389.469 310.227C389.328 310.568 389.257 310.978 389.257 311.455C389.257 311.938 389.328 312.353 389.469 312.701C389.611 313.046 389.809 313.312 390.065 313.5C390.323 313.684 390.627 313.777 390.974 313.777C391.221 313.777 391.441 313.73 391.634 313.638C391.831 313.543 391.996 313.406 392.128 313.227C392.261 313.049 392.352 312.832 392.401 312.576H393.998C393.958 313.078 393.81 313.523 393.555 313.911C393.3 314.295 392.952 314.597 392.512 314.815C392.072 315.031 391.554 315.138 390.96 315.138ZM396.894 312.775L396.889 310.757H397.157L399.705 307.909H401.658L398.523 311.399H398.177L396.894 312.775ZM395.37 315V305.545H397.042V315H395.37ZM399.821 315L397.512 311.773L398.639 310.596L401.82 315H399.821ZM405.564 317.807C404.963 317.807 404.448 317.725 404.017 317.562C403.586 317.402 403.24 317.187 402.978 316.916C402.717 316.645 402.535 316.345 402.434 316.016L403.939 315.651C404.006 315.789 404.105 315.926 404.234 316.062C404.363 316.2 404.537 316.314 404.756 316.403C404.977 316.496 405.256 316.542 405.591 316.542C406.065 316.542 406.458 316.426 406.768 316.196C407.079 315.968 407.235 315.592 407.235 315.069V313.726H407.152C407.065 313.898 406.939 314.075 406.773 314.257C406.61 314.438 406.393 314.591 406.122 314.714C405.854 314.837 405.517 314.898 405.111 314.898C404.566 314.898 404.072 314.771 403.629 314.515C403.189 314.257 402.838 313.872 402.577 313.361C402.318 312.847 402.189 312.204 402.189 311.431C402.189 310.653 402.318 309.996 402.577 309.46C402.838 308.922 403.191 308.514 403.634 308.237C404.077 307.957 404.571 307.817 405.116 307.817C405.531 307.817 405.873 307.888 406.141 308.029C406.411 308.168 406.627 308.335 406.787 308.532C406.947 308.726 407.069 308.909 407.152 309.082H407.244V307.909H408.892V315.115C408.892 315.722 408.747 316.223 408.458 316.62C408.169 317.017 407.773 317.314 407.272 317.511C406.77 317.708 406.201 317.807 405.564 317.807ZM405.577 313.587C405.931 313.587 406.233 313.501 406.482 313.329C406.732 313.156 406.921 312.909 407.05 312.586C407.179 312.262 407.244 311.875 407.244 311.422C407.244 310.976 407.179 310.585 407.05 310.25C406.924 309.914 406.736 309.654 406.487 309.469C406.241 309.282 405.938 309.188 405.577 309.188C405.205 309.188 404.894 309.285 404.645 309.479C404.396 309.673 404.208 309.939 404.082 310.277C403.955 310.613 403.892 310.994 403.892 311.422C403.892 311.856 403.955 312.236 404.082 312.562C404.211 312.886 404.4 313.138 404.65 313.32C404.902 313.498 405.211 313.587 405.577 313.587ZM410.605 315V307.909H412.225V309.091H412.299C412.428 308.682 412.65 308.366 412.964 308.145C413.281 307.92 413.642 307.808 414.049 307.808C414.141 307.808 414.244 307.812 414.358 307.821C414.475 307.828 414.572 307.838 414.649 307.854V309.391C414.578 309.366 414.466 309.345 414.312 309.326C414.161 309.305 414.015 309.294 413.873 309.294C413.569 309.294 413.295 309.36 413.051 309.493C412.811 309.622 412.622 309.802 412.484 310.033C412.345 310.263 412.276 310.53 412.276 310.831V315H410.605ZM418.56 315.138C417.868 315.138 417.267 314.986 416.76 314.681C416.252 314.377 415.858 313.951 415.578 313.403C415.301 312.855 415.162 312.215 415.162 311.482C415.162 310.75 415.301 310.108 415.578 309.557C415.858 309.006 416.252 308.578 416.76 308.274C417.267 307.969 417.868 307.817 418.56 307.817C419.253 307.817 419.853 307.969 420.361 308.274C420.868 308.578 421.261 309.006 421.538 309.557C421.818 310.108 421.958 310.75 421.958 311.482C421.958 312.215 421.818 312.855 421.538 313.403C421.261 313.951 420.868 314.377 420.361 314.681C419.853 314.986 419.253 315.138 418.56 315.138ZM418.569 313.8C418.945 313.8 419.259 313.697 419.511 313.49C419.763 313.281 419.951 313.001 420.074 312.65C420.2 312.299 420.264 311.908 420.264 311.478C420.264 311.044 420.2 310.651 420.074 310.3C419.951 309.946 419.763 309.665 419.511 309.456C419.259 309.246 418.945 309.142 418.569 309.142C418.185 309.142 417.865 309.246 417.609 309.456C417.357 309.665 417.167 309.946 417.041 310.3C416.918 310.651 416.857 311.044 416.857 311.478C416.857 311.908 416.918 312.299 417.041 312.65C417.167 313.001 417.357 313.281 417.609 313.49C417.865 313.697 418.185 313.8 418.569 313.8ZM427.896 312.018V307.909H429.567V315H427.947V313.74H427.873C427.713 314.137 427.45 314.461 427.083 314.714C426.72 314.966 426.272 315.092 425.74 315.092C425.275 315.092 424.864 314.989 424.507 314.783C424.153 314.574 423.876 314.271 423.676 313.874C423.476 313.473 423.376 312.99 423.376 312.424V307.909H425.047V312.165C425.047 312.615 425.171 312.972 425.417 313.237C425.663 313.501 425.986 313.634 426.386 313.634C426.632 313.634 426.871 313.574 427.102 313.453C427.333 313.333 427.522 313.155 427.67 312.918C427.82 312.678 427.896 312.378 427.896 312.018ZM432.957 310.845V315H431.285V307.909H432.883V309.114H432.966C433.129 308.717 433.389 308.402 433.746 308.168C434.106 307.934 434.551 307.817 435.08 307.817C435.57 307.817 435.996 307.921 436.359 308.131C436.725 308.34 437.008 308.643 437.208 309.04C437.411 309.437 437.512 309.919 437.508 310.485V315H435.837V310.744C435.837 310.27 435.714 309.899 435.468 309.631C435.225 309.363 434.888 309.229 434.457 309.229C434.165 309.229 433.905 309.294 433.677 309.423C433.452 309.549 433.275 309.733 433.146 309.973C433.02 310.213 432.957 310.504 432.957 310.845ZM441.839 315.125C441.282 315.125 440.783 314.982 440.343 314.695C439.903 314.409 439.555 313.994 439.3 313.449C439.044 312.904 438.916 312.242 438.916 311.464C438.916 310.676 439.046 310.011 439.304 309.469C439.566 308.925 439.918 308.514 440.361 308.237C440.805 307.957 441.299 307.817 441.843 307.817C442.259 307.817 442.6 307.888 442.868 308.029C443.136 308.168 443.348 308.335 443.505 308.532C443.662 308.726 443.784 308.909 443.87 309.082H443.939V305.545H445.615V315H443.972V313.883H443.87C443.784 314.055 443.659 314.238 443.496 314.432C443.333 314.623 443.117 314.786 442.85 314.922C442.582 315.057 442.245 315.125 441.839 315.125ZM442.305 313.754C442.659 313.754 442.96 313.658 443.21 313.467C443.459 313.273 443.648 313.004 443.778 312.659C443.907 312.315 443.972 311.913 443.972 311.455C443.972 310.996 443.907 310.597 443.778 310.259C443.651 309.92 443.464 309.657 443.214 309.469C442.968 309.282 442.665 309.188 442.305 309.188C441.933 309.188 441.622 309.285 441.372 309.479C441.123 309.673 440.935 309.94 440.809 310.282C440.683 310.624 440.62 311.014 440.62 311.455C440.62 311.898 440.683 312.293 440.809 312.641C440.938 312.986 441.128 313.258 441.377 313.458C441.629 313.655 441.939 313.754 442.305 313.754ZM450.62 315V307.909H452.241V309.091H452.315C452.444 308.682 452.665 308.366 452.979 308.145C453.296 307.92 453.658 307.808 454.064 307.808C454.157 307.808 454.26 307.812 454.374 307.821C454.491 307.828 454.587 307.838 454.664 307.854V309.391C454.594 309.366 454.481 309.345 454.327 309.326C454.177 309.305 454.03 309.294 453.889 309.294C453.584 309.294 453.31 309.36 453.067 309.493C452.827 309.622 452.638 309.802 452.499 310.033C452.361 310.263 452.292 310.53 452.292 310.831V315H450.62ZM458.622 315.138C457.911 315.138 457.297 314.991 456.78 314.695C456.266 314.397 455.87 313.975 455.593 313.43C455.316 312.883 455.178 312.238 455.178 311.496C455.178 310.767 455.316 310.127 455.593 309.576C455.874 309.022 456.264 308.591 456.766 308.283C457.268 307.972 457.857 307.817 458.534 307.817C458.971 307.817 459.384 307.888 459.771 308.029C460.162 308.168 460.507 308.383 460.805 308.675C461.107 308.968 461.344 309.34 461.516 309.793C461.689 310.242 461.775 310.777 461.775 311.399V311.912H455.963V310.785H460.173C460.17 310.465 460.101 310.18 459.965 309.931C459.83 309.679 459.641 309.48 459.397 309.336C459.157 309.191 458.877 309.119 458.557 309.119C458.216 309.119 457.916 309.202 457.657 309.368C457.399 309.531 457.197 309.746 457.052 310.014C456.911 310.279 456.838 310.57 456.835 310.887V311.87C456.835 312.282 456.911 312.636 457.062 312.932C457.212 313.224 457.423 313.449 457.694 313.606C457.965 313.76 458.282 313.837 458.645 313.837C458.888 313.837 459.108 313.803 459.305 313.735C459.502 313.664 459.673 313.561 459.818 313.426C459.962 313.29 460.071 313.123 460.145 312.923L461.706 313.098C461.607 313.51 461.419 313.871 461.142 314.178C460.869 314.483 460.518 314.72 460.09 314.889C459.662 315.055 459.173 315.138 458.622 315.138ZM463.189 315V307.909H464.786V309.114H464.869C465.017 308.708 465.262 308.391 465.603 308.163C465.945 307.932 466.353 307.817 466.827 307.817C467.307 307.817 467.711 307.934 468.041 308.168C468.373 308.398 468.607 308.714 468.742 309.114H468.816C468.973 308.72 469.238 308.406 469.61 308.172C469.986 307.935 470.43 307.817 470.944 307.817C471.597 307.817 472.129 308.023 472.542 308.435C472.954 308.848 473.16 309.449 473.16 310.24V315H471.485V310.499C471.485 310.059 471.368 309.737 471.134 309.534C470.9 309.328 470.614 309.225 470.275 309.225C469.872 309.225 469.556 309.351 469.329 309.603C469.104 309.853 468.992 310.177 468.992 310.577V315H467.353V310.43C467.353 310.063 467.242 309.771 467.02 309.553C466.802 309.334 466.516 309.225 466.162 309.225C465.922 309.225 465.703 309.286 465.506 309.409C465.309 309.529 465.152 309.7 465.035 309.922C464.918 310.14 464.86 310.396 464.86 310.688V315H463.189ZM477.949 315.138C477.256 315.138 476.656 314.986 476.148 314.681C475.641 314.377 475.247 313.951 474.967 313.403C474.69 312.855 474.551 312.215 474.551 311.482C474.551 310.75 474.69 310.108 474.967 309.557C475.247 309.006 475.641 308.578 476.148 308.274C476.656 307.969 477.256 307.817 477.949 307.817C478.641 307.817 479.241 307.969 479.749 308.274C480.257 308.578 480.649 309.006 480.926 309.557C481.206 310.108 481.347 310.75 481.347 311.482C481.347 312.215 481.206 312.855 480.926 313.403C480.649 313.951 480.257 314.377 479.749 314.681C479.241 314.986 478.641 315.138 477.949 315.138ZM477.958 313.8C478.333 313.8 478.647 313.697 478.9 313.49C479.152 313.281 479.34 313.001 479.463 312.65C479.589 312.299 479.652 311.908 479.652 311.478C479.652 311.044 479.589 310.651 479.463 310.3C479.34 309.946 479.152 309.665 478.9 309.456C478.647 309.246 478.333 309.142 477.958 309.142C477.573 309.142 477.253 309.246 476.998 309.456C476.745 309.665 476.556 309.946 476.43 310.3C476.307 310.651 476.245 311.044 476.245 311.478C476.245 311.908 476.307 312.299 476.43 312.65C476.556 313.001 476.745 313.281 476.998 313.49C477.253 313.697 477.573 313.8 477.958 313.8ZM488.858 307.909L486.332 315H484.486L481.96 307.909H483.742L485.372 313.176H485.446L487.08 307.909H488.858ZM491.851 315.143C491.402 315.143 490.997 315.063 490.637 314.903C490.28 314.74 489.997 314.5 489.788 314.183C489.582 313.866 489.478 313.475 489.478 313.01C489.478 312.61 489.552 312.279 489.7 312.018C489.848 311.756 490.049 311.547 490.305 311.39C490.56 311.233 490.848 311.114 491.168 311.034C491.491 310.951 491.825 310.891 492.17 310.854C492.585 310.811 492.922 310.773 493.181 310.739C493.439 310.702 493.627 310.647 493.744 310.573C493.864 310.496 493.924 310.377 493.924 310.217V310.19C493.924 309.842 493.821 309.573 493.615 309.382C493.409 309.191 493.112 309.096 492.724 309.096C492.314 309.096 491.99 309.185 491.75 309.363C491.513 309.542 491.353 309.753 491.27 309.996L489.709 309.774C489.832 309.343 490.035 308.983 490.319 308.694C490.602 308.402 490.948 308.183 491.357 308.038C491.767 307.891 492.219 307.817 492.715 307.817C493.056 307.817 493.396 307.857 493.735 307.937C494.073 308.017 494.383 308.149 494.663 308.334C494.943 308.515 495.167 308.763 495.337 309.077C495.509 309.391 495.595 309.783 495.595 310.254V315H493.989V314.026H493.933C493.832 314.223 493.689 314.408 493.504 314.58C493.322 314.749 493.093 314.886 492.816 314.991C492.542 315.092 492.221 315.143 491.851 315.143ZM492.285 313.915C492.621 313.915 492.912 313.849 493.158 313.717C493.404 313.581 493.593 313.403 493.726 313.181C493.861 312.96 493.929 312.718 493.929 312.456V311.621C493.876 311.664 493.787 311.704 493.661 311.741C493.538 311.778 493.399 311.81 493.245 311.838C493.092 311.865 492.939 311.89 492.788 311.912C492.638 311.933 492.507 311.952 492.396 311.967C492.147 312.001 491.924 312.056 491.727 312.133C491.53 312.21 491.374 312.318 491.26 312.456C491.147 312.592 491.09 312.767 491.09 312.983C491.09 313.29 491.202 313.523 491.427 313.68C491.651 313.837 491.937 313.915 492.285 313.915ZM498.947 305.545V315H497.276V305.545H498.947Z" fill="#74B259"/>
<circle cx="358" cy="310" r="9" fill="#74B259"/>
<path d="M431.933 57V47.5455H435.552C436.235 47.5455 436.803 47.6532 437.255 47.8686C437.711 48.081 438.051 48.3718 438.276 48.7411C438.503 49.1104 438.617 49.529 438.617 49.9968C438.617 50.3815 438.543 50.7108 438.396 50.9847C438.248 51.2556 438.049 51.4756 437.8 51.6449C437.551 51.8142 437.272 51.9357 436.964 52.0096V52.1019C437.3 52.1204 437.622 52.2235 437.929 52.4112C438.24 52.5959 438.494 52.8575 438.691 53.196C438.888 53.5346 438.987 53.9439 438.987 54.424C438.987 54.9134 438.868 55.3535 438.631 55.7443C438.394 56.1321 438.037 56.4383 437.56 56.663C437.083 56.8877 436.483 57 435.76 57H431.933ZM433.645 55.5689H435.487C436.109 55.5689 436.557 55.4504 436.831 55.2134C437.108 54.9734 437.246 54.6656 437.246 54.2901C437.246 54.0101 437.177 53.7577 437.038 53.533C436.9 53.3053 436.703 53.1268 436.447 52.9975C436.192 52.8652 435.887 52.799 435.533 52.799H433.645V55.5689ZM433.645 51.5664H435.339C435.635 51.5664 435.901 51.5125 436.138 51.4048C436.375 51.294 436.561 51.1386 436.697 50.9386C436.835 50.7354 436.904 50.4954 436.904 50.2184C436.904 49.8522 436.775 49.5505 436.517 49.3136C436.261 49.0766 435.881 48.9581 435.376 48.9581H433.645V51.5664ZM440.403 57V49.9091H442.023V51.0909H442.097C442.226 50.6816 442.448 50.3661 442.762 50.1445C443.079 49.9199 443.44 49.8075 443.847 49.8075C443.939 49.8075 444.042 49.8121 444.156 49.8214C444.273 49.8275 444.37 49.8383 444.447 49.8537V51.391C444.376 51.3664 444.264 51.3448 444.11 51.3263C443.959 51.3048 443.813 51.294 443.671 51.294C443.366 51.294 443.092 51.3602 442.849 51.4925C442.609 51.6218 442.42 51.8018 442.282 52.0327C442.143 52.2635 442.074 52.5297 442.074 52.8313V57H440.403ZM447.47 57.1431C447.021 57.1431 446.616 57.0631 446.256 56.9031C445.899 56.7399 445.616 56.4999 445.407 56.1829C445.201 55.8659 445.098 55.475 445.098 55.0103C445.098 54.6102 445.171 54.2794 445.319 54.0178C445.467 53.7562 445.668 53.5469 445.924 53.3899C446.179 53.233 446.467 53.1145 446.787 53.0344C447.11 52.9513 447.444 52.8913 447.789 52.8544C448.204 52.8113 448.541 52.7728 448.8 52.739C449.059 52.7021 449.246 52.6467 449.363 52.5728C449.483 52.4959 449.543 52.3774 449.543 52.2173V52.1896C449.543 51.8419 449.44 51.5726 449.234 51.3817C449.028 51.1909 448.731 51.0955 448.343 51.0955C447.934 51.0955 447.609 51.1848 447.369 51.3633C447.132 51.5418 446.972 51.7526 446.889 51.9957L445.328 51.7741C445.451 51.3433 445.655 50.9832 445.938 50.6939C446.221 50.4015 446.567 50.183 446.976 50.0384C447.386 49.8906 447.838 49.8168 448.334 49.8168C448.675 49.8168 449.015 49.8568 449.354 49.9368C449.693 50.0168 450.002 50.1491 450.282 50.3338C450.562 50.5154 450.787 50.7631 450.956 51.0771C451.128 51.391 451.214 51.7834 451.214 52.2543V57H449.608V56.0259H449.552C449.451 56.2229 449.308 56.4076 449.123 56.5799C448.942 56.7492 448.712 56.8861 448.435 56.9908C448.161 57.0923 447.84 57.1431 447.47 57.1431ZM447.904 55.9151C448.24 55.9151 448.531 55.849 448.777 55.7166C449.023 55.5812 449.212 55.4027 449.345 55.1811C449.48 54.9595 449.548 54.7179 449.548 54.4563V53.6207C449.496 53.6638 449.406 53.7038 449.28 53.7408C449.157 53.7777 449.018 53.81 448.865 53.8377C448.711 53.8654 448.558 53.89 448.408 53.9116C448.257 53.9331 448.126 53.9516 448.015 53.967C447.766 54.0008 447.543 54.0562 447.346 54.1332C447.149 54.2101 446.993 54.3178 446.88 54.4563C446.766 54.5917 446.709 54.7672 446.709 54.9826C446.709 55.2904 446.821 55.5227 447.046 55.6797C447.27 55.8366 447.557 55.9151 447.904 55.9151ZM454.566 52.8452V57H452.895V49.9091H454.492V51.114H454.575C454.738 50.717 454.998 50.4015 455.355 50.1676C455.715 49.9337 456.16 49.8168 456.69 49.8168C457.179 49.8168 457.605 49.9214 457.968 50.1307C458.335 50.34 458.618 50.6431 458.818 51.0401C459.021 51.4371 459.121 51.9188 459.118 52.4851V57H457.447V52.7436C457.447 52.2696 457.324 51.8988 457.077 51.631C456.834 51.3633 456.497 51.2294 456.066 51.2294C455.774 51.2294 455.514 51.294 455.286 51.4233C455.061 51.5495 454.884 51.7326 454.755 51.9727C454.629 52.2127 454.566 52.5036 454.566 52.8452ZM463.448 57.1246C462.891 57.1246 462.392 56.9815 461.952 56.6953C461.512 56.4091 461.164 55.9936 460.909 55.4489C460.654 54.9041 460.526 54.2424 460.526 53.4638C460.526 52.6759 460.655 52.0111 460.914 51.4695C461.175 50.9247 461.528 50.5138 461.971 50.2369C462.414 49.9568 462.908 49.8168 463.453 49.8168C463.868 49.8168 464.21 49.8875 464.478 50.0291C464.745 50.1676 464.958 50.3353 465.115 50.5323C465.272 50.7262 465.393 50.9093 465.479 51.0817H465.549V47.5455H467.224V57H465.581V55.8828H465.479C465.393 56.0552 465.268 56.2383 465.105 56.4322C464.942 56.623 464.727 56.7861 464.459 56.9215C464.191 57.0569 463.854 57.1246 463.448 57.1246ZM463.914 55.7536C464.268 55.7536 464.57 55.6581 464.819 55.4673C465.068 55.2734 465.258 55.0041 465.387 54.6594C465.516 54.3147 465.581 53.9131 465.581 53.4545C465.581 52.996 465.516 52.5974 465.387 52.2589C465.261 51.9203 465.073 51.6572 464.824 51.4695C464.578 51.2817 464.274 51.1879 463.914 51.1879C463.542 51.1879 463.231 51.2848 462.982 51.4787C462.733 51.6726 462.545 51.9403 462.419 52.282C462.292 52.6236 462.229 53.0144 462.229 53.4545C462.229 53.8977 462.292 54.2932 462.419 54.641C462.548 54.9857 462.737 55.258 462.986 55.4581C463.239 55.6551 463.548 55.7536 463.914 55.7536ZM472.23 57V49.9091H473.901V57H472.23ZM473.07 48.9027C472.805 48.9027 472.578 48.815 472.387 48.6396C472.196 48.4611 472.1 48.2472 472.1 47.9979C472.1 47.7455 472.196 47.5316 472.387 47.3562C472.578 47.1777 472.805 47.0884 473.07 47.0884C473.338 47.0884 473.565 47.1777 473.753 47.3562C473.944 47.5316 474.039 47.7455 474.039 47.9979C474.039 48.2472 473.944 48.4611 473.753 48.6396C473.565 48.815 473.338 48.9027 473.07 48.9027ZM478.251 57.1246C477.694 57.1246 477.195 56.9815 476.755 56.6953C476.315 56.4091 475.967 55.9936 475.712 55.4489C475.456 54.9041 475.329 54.2424 475.329 53.4638C475.329 52.6759 475.458 52.0111 475.716 51.4695C475.978 50.9247 476.33 50.5138 476.774 50.2369C477.217 49.9568 477.711 49.8168 478.255 49.8168C478.671 49.8168 479.013 49.8875 479.28 50.0291C479.548 50.1676 479.76 50.3353 479.917 50.5323C480.074 50.7262 480.196 50.9093 480.282 51.0817H480.351V47.5455H482.027V57H480.384V55.8828H480.282C480.196 56.0552 480.071 56.2383 479.908 56.4322C479.745 56.623 479.53 56.7861 479.262 56.9215C478.994 57.0569 478.657 57.1246 478.251 57.1246ZM478.717 55.7536C479.071 55.7536 479.373 55.6581 479.622 55.4673C479.871 55.2734 480.06 55.0041 480.19 54.6594C480.319 54.3147 480.384 53.9131 480.384 53.4545C480.384 52.996 480.319 52.5974 480.19 52.2589C480.064 51.9203 479.876 51.6572 479.627 51.4695C479.38 51.2817 479.077 51.1879 478.717 51.1879C478.345 51.1879 478.034 51.2848 477.785 51.4787C477.535 51.6726 477.348 51.9403 477.221 52.282C477.095 52.6236 477.032 53.0144 477.032 53.4545C477.032 53.8977 477.095 54.2932 477.221 54.641C477.351 54.9857 477.54 55.258 477.789 55.4581C478.042 55.6551 478.351 55.7536 478.717 55.7536ZM486.947 57.1385C486.236 57.1385 485.622 56.9908 485.105 56.6953C484.591 56.3968 484.196 55.9751 483.919 55.4304C483.642 54.8826 483.503 54.2378 483.503 53.4961C483.503 52.7667 483.642 52.1265 483.919 51.5756C484.199 51.0217 484.59 50.5908 485.091 50.283C485.593 49.9722 486.182 49.8168 486.859 49.8168C487.296 49.8168 487.709 49.8875 488.097 50.0291C488.487 50.1676 488.832 50.383 489.131 50.6754C489.432 50.9678 489.669 51.3402 489.842 51.7926C490.014 52.242 490.1 52.7775 490.1 53.3991V53.9116H484.288V52.7852H488.498C488.495 52.4651 488.426 52.1804 488.29 51.9311C488.155 51.6787 487.966 51.4802 487.723 51.3356C487.483 51.1909 487.203 51.1186 486.882 51.1186C486.541 51.1186 486.241 51.2017 485.982 51.3679C485.724 51.531 485.522 51.7464 485.377 52.0142C485.236 52.2789 485.164 52.5697 485.161 52.8867V53.87C485.161 54.2824 485.236 54.6364 485.387 54.9318C485.538 55.2242 485.748 55.4489 486.019 55.6058C486.29 55.7597 486.607 55.8366 486.97 55.8366C487.213 55.8366 487.433 55.8028 487.63 55.7351C487.827 55.6643 487.998 55.5612 488.143 55.4258C488.287 55.2904 488.397 55.1226 488.471 54.9226L490.031 55.098C489.932 55.5104 489.745 55.8705 489.468 56.1783C489.194 56.483 488.843 56.7199 488.415 56.8892C487.987 57.0554 487.498 57.1385 486.947 57.1385ZM493.185 52.8452V57H491.514V49.9091H493.111V51.114H493.194C493.357 50.717 493.618 50.4015 493.975 50.1676C494.335 49.9337 494.779 49.8168 495.309 49.8168C495.798 49.8168 496.224 49.9214 496.587 50.1307C496.954 50.34 497.237 50.6431 497.437 51.0401C497.64 51.4371 497.74 51.9188 497.737 52.4851V57H496.066V52.7436C496.066 52.2696 495.943 51.8988 495.696 51.631C495.453 51.3633 495.116 51.2294 494.685 51.2294C494.393 51.2294 494.133 51.294 493.905 51.4233C493.681 51.5495 493.504 51.7326 493.374 51.9727C493.248 52.2127 493.185 52.5036 493.185 52.8452ZM502.977 49.9091V51.2017H498.9V49.9091H502.977ZM499.907 48.2102H501.578V54.8672C501.578 55.0919 501.612 55.2642 501.679 55.3842C501.75 55.5012 501.843 55.5812 501.956 55.6243C502.07 55.6674 502.196 55.6889 502.335 55.6889C502.44 55.6889 502.535 55.6812 502.621 55.6658C502.71 55.6504 502.778 55.6366 502.824 55.6243L503.106 56.9308C503.017 56.9615 502.889 56.9954 502.723 57.0323C502.56 57.0692 502.36 57.0908 502.123 57.0969C501.704 57.1093 501.327 57.0462 500.992 56.9077C500.656 56.7661 500.39 56.5476 500.193 56.2521C499.999 55.9567 499.904 55.5874 499.907 55.1442V48.2102ZM504.374 57V49.9091H506.045V57H504.374ZM505.214 48.9027C504.95 48.9027 504.722 48.815 504.531 48.6396C504.34 48.4611 504.245 48.2472 504.245 47.9979C504.245 47.7455 504.34 47.5316 504.531 47.3562C504.722 47.1777 504.95 47.0884 505.214 47.0884C505.482 47.0884 505.71 47.1777 505.898 47.3562C506.089 47.5316 506.184 47.7455 506.184 47.9979C506.184 48.2472 506.089 48.4611 505.898 48.6396C505.71 48.815 505.482 48.9027 505.214 48.9027ZM511.305 49.9091V51.2017H507.228V49.9091H511.305ZM508.235 48.2102H509.906V54.8672C509.906 55.0919 509.94 55.2642 510.008 55.3842C510.078 55.5012 510.171 55.5812 510.285 55.6243C510.398 55.6674 510.525 55.6889 510.663 55.6889C510.768 55.6889 510.863 55.6812 510.949 55.6658C511.039 55.6504 511.106 55.6366 511.152 55.6243L511.434 56.9308C511.345 56.9615 511.217 56.9954 511.051 57.0323C510.888 57.0692 510.688 57.0908 510.451 57.0969C510.032 57.1093 509.655 57.0462 509.32 56.9077C508.984 56.7661 508.718 56.5476 508.521 56.2521C508.327 55.9567 508.232 55.5874 508.235 55.1442V48.2102ZM513.741 59.6591C513.513 59.6591 513.303 59.6406 513.109 59.6037C512.918 59.5698 512.766 59.5298 512.652 59.4837L513.039 58.1818C513.283 58.2526 513.5 58.2865 513.69 58.2834C513.881 58.2803 514.049 58.2203 514.194 58.1033C514.341 57.9895 514.466 57.7987 514.567 57.5309L514.711 57.1477L512.139 49.9091H513.912L515.546 55.2642H515.62L517.259 49.9091H519.036L516.197 57.8587C516.065 58.2341 515.889 58.5558 515.671 58.8235C515.452 59.0943 515.185 59.3005 514.868 59.4421C514.554 59.5868 514.178 59.6591 513.741 59.6591Z" fill="#F94646"/>
<circle cx="476" cy="72" r="9" fill="#F94646"/>
</svg>
